<svg width="28" height="24" viewBox="0 0 28 24" fill="none" xmlns="http://www.w3.org/2000/svg">
<path fill-rule="evenodd" clip-rule="evenodd" d="M16.6005 13.3153L21.5426 18.2574L20.2575 19.5425L15.3154 14.6004C14.3925 15.2645 13.2799 15.6699 12.0638 15.6699C8.96739 15.6699 6.45752 13.16 6.45752 10.0636C6.45752 6.96727 8.96739 4.4574 12.0638 4.4574C15.1601 4.4574 17.67 6.96727 17.67 10.0636C17.67 11.2798 17.2646 12.3924 16.6005 13.3153ZM12.0638 6.1824C9.91615 6.1824 8.18252 7.91602 8.18252 10.0636C8.18252 12.2113 9.91615 13.9449 12.0638 13.9449C14.2114 13.9449 15.945 12.2113 15.945 10.0636C15.945 7.91602 14.2114 6.1824 12.0638 6.1824Z" fill="#194650"/>
</svg>
