<svg width="30" height="30" viewBox="0 0 30 30" fill="none" xmlns="http://www.w3.org/2000/svg">
<path d="M14.9447 0.0207426C17.9617 0.0207426 20.9788 -0.0176696 23.9768 0.0207426C27.433 0.0591548 29.6099 1.96056 29.7245 5.30242C29.8773 9.89268 29.8391 14.4829 29.7245 19.0732C29.6481 21.8197 27.624 24.0668 25.3517 24.3165C24.5115 24.4125 23.5949 24.4701 23.3275 23.433C23.0793 22.4919 23.824 22.1846 24.5878 21.9925C26.7074 21.5124 27.1466 20.0335 27.1084 18.0745C27.013 14.0412 27.013 9.98871 27.1084 5.95543C27.1657 3.51625 26.1155 2.36389 23.7285 2.36389C17.7899 2.36389 11.8512 2.34468 5.91257 2.38309C3.58293 2.4023 2.41811 3.63149 2.41811 6.01305C2.43721 10.1424 2.43721 14.2717 2.41811 18.401C2.39902 20.8017 3.6975 21.9541 5.95076 22.0117C8.96783 22.0886 11.9849 22.1078 14.9829 22.0309C19.3939 21.9157 21.3989 25.392 24.015 27.9656C24.4733 28.4074 24.3205 28.9835 23.8813 29.4253C23.423 29.8862 22.9074 29.9246 22.411 29.5597C22.0291 29.31 21.609 29.0412 21.3607 28.6762C18.5728 24.6046 14.601 23.8171 10.0563 24.3357C8.52863 24.5085 6.96281 24.3933 5.39699 24.3549C2.37992 24.2781 0.145765 22.223 0.0884791 19.2461C-0.0260932 14.5598 -0.0260932 9.89268 0.0693837 5.20639C0.145765 2.19103 2.30354 0.116773 5.33971 0.0399487C8.54773 -0.0368757 11.7367 0.0207426 14.9447 0.0207426Z" fill="#DAB16D"/>
<path d="M9.95371 15.8816C8.75349 15.8688 7.98739 15.0772 8.00016 13.8769C8.01293 12.7789 8.84287 12 9.96648 12C11.1284 12 11.9073 12.7916 11.9073 13.9536C11.8945 15.1282 11.1284 15.8943 9.95371 15.8816Z" fill="#DAB16D"/>
<path d="M21.9999 13.9665C21.9871 15.1539 21.2338 15.8945 20.0463 15.8817C18.8844 15.8689 18.0928 15.0773 18.0928 13.9282C18.0928 12.7918 18.9099 12.0001 20.0719 12.0001C21.221 11.9874 21.9999 12.7918 21.9999 13.9665Z" fill="#DAB16D"/>
<path d="M14.9459 15.8817C13.7329 15.8817 12.9668 15.1284 12.9668 13.9154C12.9668 12.779 13.784 11.9874 14.9459 12.0002C16.0567 12.0129 16.8611 12.8046 16.8611 13.9154C16.8867 15.0773 16.095 15.8817 14.9459 15.8817Z" fill="#DAB16D"/>
</svg>
