<svg width="30" height="30" viewBox="0 0 30 30" fill="none" xmlns="http://www.w3.org/2000/svg">
<path d="M14.9447 0.0207426C17.9617 0.0207426 20.9788 -0.0176696 23.9768 0.0207426C27.433 0.0591548 29.6099 1.96056 29.7245 5.30242C29.8773 9.89268 29.8391 14.4829 29.7245 19.0732C29.6481 21.8197 27.624 24.0668 25.3517 24.3165C24.5115 24.4125 23.5949 24.4701 23.3275 23.433C23.0793 22.4919 23.824 22.1846 24.5878 21.9925C26.7074 21.5124 27.1466 20.0335 27.1084 18.0745C27.013 14.0412 27.013 9.98871 27.1084 5.95543C27.1657 3.51625 26.1155 2.36389 23.7285 2.36389C17.7899 2.36389 11.8512 2.34468 5.91257 2.38309C3.58293 2.4023 2.41811 3.63149 2.41811 6.01305C2.43721 10.1424 2.43721 14.2717 2.41811 18.401C2.39902 20.8017 3.6975 21.9541 5.95076 22.0117C8.96783 22.0886 11.9849 22.1078 14.9829 22.0309C19.3939 21.9157 21.3989 25.392 24.015 27.9656C24.4733 28.4074 24.3205 28.9835 23.8813 29.4253C23.423 29.8862 22.9074 29.9246 22.411 29.5597C22.0291 29.31 21.609 29.0412 21.3607 28.6762C18.5728 24.6046 14.601 23.8171 10.0563 24.3357C8.52863 24.5085 6.96281 24.3933 5.39699 24.3549C2.37992 24.2781 0.145765 22.223 0.0884791 19.2461C-0.0260932 14.5598 -0.0260932 9.89268 0.0693837 5.20639C0.145765 2.19103 2.30354 0.116773 5.33971 0.0399487C8.54773 -0.0368757 11.7367 0.0207426 14.9447 0.0207426Z" fill="#194650"/>
<path fill-rule="evenodd" clip-rule="evenodd" d="M21.8987 7.11662C22.0978 7.31586 22.2097 7.58607 22.2097 7.8678C22.2097 8.14954 22.0978 8.41974 21.8987 8.61899L13.9349 16.5828C13.8296 16.688 13.7047 16.7716 13.5671 16.8285C13.4296 16.8855 13.2822 16.9148 13.1334 16.9148C12.9845 16.9148 12.8371 16.8855 12.6996 16.8285C12.5621 16.7716 12.4371 16.688 12.3319 16.5828L8.37515 12.6267C8.27367 12.5287 8.19273 12.4115 8.13704 12.2819C8.08136 12.1522 8.05205 12.0128 8.05082 11.8717C8.0496 11.7307 8.07648 11.5907 8.1299 11.4602C8.18333 11.3296 8.26222 11.211 8.36198 11.1112C8.46174 11.0114 8.58037 10.9325 8.71095 10.8791C8.84153 10.8257 8.98144 10.7988 9.12251 10.8C9.26359 10.8013 9.40301 10.8306 9.53264 10.8863C9.66227 10.9419 9.77951 11.0229 9.87753 11.1244L13.133 14.3799L20.3956 7.11662C20.4942 7.01788 20.6114 6.93956 20.7404 6.88612C20.8693 6.83268 21.0075 6.80518 21.1471 6.80518C21.2867 6.80518 21.4249 6.83268 21.5539 6.88612C21.6828 6.93956 21.8 7.01788 21.8987 7.11662Z" fill="#194650" stroke="#194650" stroke-width="0.5"/>
</svg>
