<svg width="54" height="54" viewBox="0 0 54 54" fill="none" xmlns="http://www.w3.org/2000/svg">
<g filter="url(#filter0_d_2097_3704)">
<rect x="4" width="46" height="46" rx="23" fill="#183941" shape-rendering="crispEdges"/>
<path d="M27 31C26.7969 31 26.5977 30.9642 26.4023 30.8925C26.207 30.8209 26.0234 30.7055 25.8516 30.5463L24.4688 29.2567C22.7656 27.7124 21.2617 26.204 19.957 24.7313C18.6523 23.2587 18 21.6547 18 19.9194C18 18.5184 18.4688 17.3483 19.4062 16.409C20.3438 15.4697 21.5078 15 22.8984 15C23.6953 15 24.4492 15.1711 25.1602 15.5134C25.8711 15.8557 26.4844 16.3453 27 16.9821C27.5469 16.3453 28.168 15.8557 28.8633 15.5134C29.5586 15.1711 30.3047 15 31.1016 15C32.4922 15 33.6562 15.4697 34.5938 16.409C35.5312 17.3483 36 18.5184 36 19.9194C36 21.6547 35.3477 23.2587 34.043 24.7313C32.7383 26.204 31.2344 27.7124 29.5312 29.2567L28.1484 30.5463C27.9766 30.7055 27.793 30.8209 27.5977 30.8925C27.4023 30.9642 27.2031 31 27 31Z" fill="white" stroke="#183941" stroke-width="1.8"/>
</g>
<defs>
<filter id="filter0_d_2097_3704" x="0" y="0" width="54" height="54" filterUnits="userSpaceOnUse" color-interpolation-filters="sRGB">
<feFlood flood-opacity="0" result="BackgroundImageFix"/>
<feColorMatrix in="SourceAlpha" type="matrix" values="0 0 0 0 0 0 0 0 0 0 0 0 0 0 0 0 0 0 127 0" result="hardAlpha"/>
<feOffset dy="4"/>
<feGaussianBlur stdDeviation="2"/>
<feComposite in2="hardAlpha" operator="out"/>
<feColorMatrix type="matrix" values="0 0 0 0 0 0 0 0 0 0 0 0 0 0 0 0 0 0 0.25 0"/>
<feBlend mode="normal" in2="BackgroundImageFix" result="effect1_dropShadow_2097_3704"/>
<feBlend mode="normal" in="SourceGraphic" in2="effect1_dropShadow_2097_3704" result="shape"/>
</filter>
</defs>
</svg>
