<svg width="28" height="24" viewBox="0 0 28 24" fill="none" xmlns="http://www.w3.org/2000/svg">
<path d="M14 20C13.7969 20 13.5977 19.9642 13.4023 19.8925C13.207 19.8209 13.0234 19.7055 12.8516 19.5463L11.4688 18.2567C9.76563 16.7124 8.26172 15.204 6.95703 13.7313C5.65234 12.2587 5 10.6547 5 8.9194C5 7.51841 5.46875 6.34826 6.40625 5.40896C7.34375 4.46965 8.50781 4 9.89844 4C10.6953 4 11.4492 4.17114 12.1602 4.51343C12.8711 4.85572 13.4844 5.34527 14 5.98209C14.5469 5.34527 15.168 4.85572 15.8633 4.51343C16.5586 4.17114 17.3047 4 18.1016 4C19.4922 4 20.6562 4.46965 21.5938 5.40896C22.5312 6.34826 23 7.51841 23 8.9194C23 10.6547 22.3477 12.2587 21.043 13.7313C19.7383 15.204 18.2344 16.7124 16.5312 18.2567L15.1484 19.5463C14.9766 19.7055 14.793 19.8209 14.5977 19.8925C14.4023 19.9642 14.2031 20 14 20Z" fill="#183941" stroke="white" stroke-width="1.8"/>
</svg>
