<svg width="132" height="67" viewBox="0 0 132 67" fill="none" xmlns="http://www.w3.org/2000/svg">
<g filter="url(#filter0_d_2071_23862)">
<rect x="75.2" y="5.59998" width="46" height="46" rx="23" fill="white" shape-rendering="crispEdges"/>
<rect x="75.2" y="5.59998" width="46" height="46" rx="23" stroke="#194650" stroke-width="2" shape-rendering="crispEdges"/>
<path d="M98.1991 36.0237C97.9915 36.0237 97.7879 35.9878 97.5882 35.9159C97.3886 35.844 97.2009 35.7282 97.0252 35.5685L95.6116 34.2747C93.8707 32.7254 92.3333 31.2121 90.9997 29.7346C89.666 28.2572 88.9991 26.648 88.9991 24.907C88.9991 23.5015 89.4783 22.3275 90.4366 21.3852C91.395 20.4428 92.5849 19.9716 94.0064 19.9716C94.821 19.9716 95.5917 20.1433 96.3184 20.4867C97.0452 20.8301 97.6721 21.3213 98.1991 21.9602C98.7582 21.3213 99.3931 20.8301 100.104 20.4867C100.815 20.1433 101.577 19.9716 102.392 19.9716C103.813 19.9716 105.003 20.4428 105.962 21.3852C106.92 22.3275 107.399 23.5015 107.399 24.907C107.399 26.648 106.732 28.2572 105.399 29.7346C104.065 31.2121 102.528 32.7254 100.787 34.2747L99.3731 35.5685C99.1974 35.7282 99.0097 35.844 98.8101 35.9159C98.6104 35.9878 98.4068 36.0237 98.1991 36.0237Z" fill="white" stroke="#194650" stroke-width="2.5"/>
</g>
<g filter="url(#filter1_d_2071_23862)">
<rect x="9.19995" y="5.59998" width="46" height="46" rx="23" fill="white" shape-rendering="crispEdges"/>
<rect x="10.2" y="6.59998" width="44" height="44" rx="22" stroke="#194650" stroke-width="2" shape-rendering="crispEdges"/>
<path fill-rule="evenodd" clip-rule="evenodd" d="M30.1048 20.8795C31.678 20.4523 33.3443 20.516 34.8803 21.062C36.4164 21.608 37.749 22.6102 38.6998 23.9345V22.3495C38.6998 22.1506 38.7788 21.9598 38.9194 21.8192C39.0601 21.6785 39.2509 21.5995 39.4498 21.5995C39.6487 21.5995 39.8394 21.6785 39.9801 21.8192C40.1207 21.9598 40.1998 22.1506 40.1998 22.3495V26.5995H35.9498C35.7509 26.5995 35.5601 26.5205 35.4194 26.3798C35.2788 26.2392 35.1998 26.0484 35.1998 25.8495C35.1998 25.6506 35.2788 25.4598 35.4194 25.3192C35.5601 25.1785 35.7509 25.0995 35.9498 25.0995H37.6768C36.8934 23.874 35.7217 22.9466 34.349 22.4657C32.9764 21.9849 31.4821 21.9783 30.1052 22.447C28.7283 22.9157 27.5484 23.8327 26.7543 25.0513C25.9602 26.2698 25.5977 27.7195 25.7249 29.1684C25.852 30.6173 26.4614 31.9817 27.4557 33.0433C28.4499 34.1049 29.7714 34.8024 31.2089 35.0242C32.6464 35.246 34.1167 34.9792 35.3846 34.2666C36.6525 33.554 37.6449 32.4367 38.2028 31.0935C38.239 31.0004 38.2934 30.9154 38.3629 30.8437C38.4324 30.7719 38.5156 30.7147 38.6075 30.6755C38.6994 30.6363 38.7982 30.6158 38.8981 30.6154C38.9981 30.6149 39.0971 30.6344 39.1893 30.6727C39.2816 30.711 39.3653 30.7673 39.4355 30.8385C39.5057 30.9096 39.561 30.994 39.5981 31.0868C39.6352 31.1795 39.6534 31.2788 39.6516 31.3787C39.6499 31.4786 39.6282 31.5771 39.5878 31.6685C39.0666 32.923 38.2345 34.0242 37.17 34.8682C36.1054 35.7121 34.8435 36.2711 33.5032 36.4924C32.1628 36.7137 30.7882 36.59 29.5089 36.1331C28.2296 35.6761 27.0877 34.9009 26.1909 33.8805C25.2941 32.8601 24.6719 31.6281 24.383 30.3007C24.0941 28.9733 24.1479 27.5941 24.5395 26.2933C24.9311 24.9925 25.6475 23.8128 26.6211 22.8654C27.5948 21.9181 28.7937 21.2353 30.1048 20.8795Z" fill="#194650" stroke="#194650"/>
</g>
<g filter="url(#filter2_d_2071_23862)">
<rect x="9.19995" y="5.59998" width="46" height="46" rx="23" fill="white" shape-rendering="crispEdges"/>
<rect x="10.2" y="6.59998" width="44" height="44" rx="22" stroke="#194650" stroke-width="2" shape-rendering="crispEdges"/>
<path fill-rule="evenodd" clip-rule="evenodd" d="M30.1048 20.8795C31.678 20.4523 33.3443 20.516 34.8803 21.062C36.4164 21.608 37.749 22.6102 38.6998 23.9345V22.3495C38.6998 22.1506 38.7788 21.9598 38.9194 21.8192C39.0601 21.6785 39.2509 21.5995 39.4498 21.5995C39.6487 21.5995 39.8394 21.6785 39.9801 21.8192C40.1207 21.9598 40.1998 22.1506 40.1998 22.3495V26.5995H35.9498C35.7509 26.5995 35.5601 26.5205 35.4194 26.3798C35.2788 26.2392 35.1998 26.0484 35.1998 25.8495C35.1998 25.6506 35.2788 25.4598 35.4194 25.3192C35.5601 25.1785 35.7509 25.0995 35.9498 25.0995H37.6768C36.8934 23.874 35.7217 22.9466 34.349 22.4657C32.9764 21.9849 31.4821 21.9783 30.1052 22.447C28.7283 22.9157 27.5484 23.8327 26.7543 25.0513C25.9602 26.2698 25.5977 27.7195 25.7249 29.1684C25.852 30.6173 26.4614 31.9817 27.4557 33.0433C28.4499 34.1049 29.7714 34.8024 31.2089 35.0242C32.6464 35.246 34.1167 34.9792 35.3846 34.2666C36.6525 33.554 37.6449 32.4367 38.2028 31.0935C38.239 31.0004 38.2934 30.9154 38.3629 30.8437C38.4324 30.7719 38.5156 30.7147 38.6075 30.6755C38.6994 30.6363 38.7982 30.6158 38.8981 30.6154C38.9981 30.6149 39.0971 30.6344 39.1893 30.6727C39.2816 30.711 39.3653 30.7673 39.4355 30.8385C39.5057 30.9096 39.561 30.994 39.5981 31.0868C39.6352 31.1795 39.6534 31.2788 39.6516 31.3787C39.6499 31.4786 39.6282 31.5771 39.5878 31.6685C39.0666 32.923 38.2345 34.0242 37.17 34.8682C36.1054 35.7121 34.8435 36.2711 33.5032 36.4924C32.1628 36.7137 30.7882 36.59 29.5089 36.1331C28.2296 35.6761 27.0877 34.9009 26.1909 33.8805C25.2941 32.8601 24.6719 31.6281 24.383 30.3007C24.0941 28.9733 24.1479 27.5941 24.5395 26.2933C24.9311 24.9925 25.6475 23.8128 26.6211 22.8654C27.5948 21.9181 28.7937 21.2353 30.1048 20.8795Z" fill="#194650" stroke="#194650"/>
</g>
<defs>
<filter id="filter0_d_2071_23862" x="65" y="-2.43187e-05" width="66.4" height="66.4" filterUnits="userSpaceOnUse" color-interpolation-filters="sRGB">
<feFlood flood-opacity="0" result="BackgroundImageFix"/>
<feColorMatrix in="SourceAlpha" type="matrix" values="0 0 0 0 0 0 0 0 0 0 0 0 0 0 0 0 0 0 127 0" result="hardAlpha"/>
<feOffset dy="4.6"/>
<feGaussianBlur stdDeviation="4.6"/>
<feComposite in2="hardAlpha" operator="out"/>
<feColorMatrix type="matrix" values="0 0 0 0 0 0 0 0 0 0 0 0 0 0 0 0 0 0 0.25 0"/>
<feBlend mode="normal" in2="BackgroundImageFix" result="effect1_dropShadow_2071_23862"/>
<feBlend mode="normal" in="SourceGraphic" in2="effect1_dropShadow_2071_23862" result="shape"/>
</filter>
<filter id="filter1_d_2071_23862" x="-4.86374e-05" y="0.999976" width="64.4" height="64.4" filterUnits="userSpaceOnUse" color-interpolation-filters="sRGB">
<feFlood flood-opacity="0" result="BackgroundImageFix"/>
<feColorMatrix in="SourceAlpha" type="matrix" values="0 0 0 0 0 0 0 0 0 0 0 0 0 0 0 0 0 0 127 0" result="hardAlpha"/>
<feOffset dy="4.6"/>
<feGaussianBlur stdDeviation="4.6"/>
<feComposite in2="hardAlpha" operator="out"/>
<feColorMatrix type="matrix" values="0 0 0 0 0 0 0 0 0 0 0 0 0 0 0 0 0 0 0.25 0"/>
<feBlend mode="normal" in2="BackgroundImageFix" result="effect1_dropShadow_2071_23862"/>
<feBlend mode="normal" in="SourceGraphic" in2="effect1_dropShadow_2071_23862" result="shape"/>
</filter>
<filter id="filter2_d_2071_23862" x="-4.86374e-05" y="0.999976" width="64.4" height="64.4" filterUnits="userSpaceOnUse" color-interpolation-filters="sRGB">
<feFlood flood-opacity="0" result="BackgroundImageFix"/>
<feColorMatrix in="SourceAlpha" type="matrix" values="0 0 0 0 0 0 0 0 0 0 0 0 0 0 0 0 0 0 127 0" result="hardAlpha"/>
<feOffset dy="4.6"/>
<feGaussianBlur stdDeviation="4.6"/>
<feComposite in2="hardAlpha" operator="out"/>
<feColorMatrix type="matrix" values="0 0 0 0 0 0 0 0 0 0 0 0 0 0 0 0 0 0 0.25 0"/>
<feBlend mode="normal" in2="BackgroundImageFix" result="effect1_dropShadow_2071_23862"/>
<feBlend mode="normal" in="SourceGraphic" in2="effect1_dropShadow_2071_23862" result="shape"/>
</filter>
</defs>
</svg>
