<svg width="382" height="70" viewBox="0 0 382 70" fill="none" xmlns="http://www.w3.org/2000/svg">
<g filter="url(#filter0_d_2071_34246)">
<rect x="7.28894" y="3.64447" width="366.85" height="55.2" rx="13.6667" fill="#DAB16D"/>
<g clip-path="url(#clip0_2071_34246)">
<g clip-path="url(#clip1_2071_34246)">
<path d="M62.5457 17.1697C65.5628 17.1697 68.5798 17.1313 71.5778 17.1697C75.0341 17.2081 77.2109 19.1095 77.3255 22.4514C77.4783 27.0417 77.4401 31.6319 77.3255 36.2222C77.2491 38.9687 75.225 41.2158 72.9527 41.4654C72.1125 41.5615 71.1959 41.6191 70.9286 40.582C70.6803 39.6409 71.425 39.3336 72.1889 39.1415C74.3084 38.6614 74.7476 37.1825 74.7094 35.2235C74.614 31.1902 74.614 27.1377 74.7094 23.1044C74.7667 20.6652 73.7165 19.5129 71.3296 19.5129C65.3909 19.5129 59.4522 19.4937 53.5136 19.5321C51.1839 19.5513 50.0191 20.7805 50.0191 23.162C50.0382 27.2913 50.0382 31.4207 50.0191 35.55C50 37.9507 51.2985 39.1031 53.5518 39.1607C56.5688 39.2375 59.5859 39.2567 62.5839 39.1799C66.9949 39.0647 68.9999 42.541 71.616 45.1146C72.0743 45.5563 71.9215 46.1325 71.4823 46.5743C71.024 47.0352 70.5085 47.0736 70.012 46.7087C69.6301 46.459 69.21 46.1901 68.9617 45.8252C66.1738 41.7535 62.202 40.9661 57.6573 41.4847C56.1296 41.6575 54.5638 41.5423 52.998 41.5039C49.9809 41.427 47.7468 39.372 47.6895 36.395C47.5749 31.7087 47.5749 27.0417 47.6704 22.3554C47.7468 19.34 49.9046 17.2658 52.9407 17.1889C56.1487 17.1121 59.3377 17.1697 62.5457 17.1697Z" fill="#194650"/>
<path fill-rule="evenodd" clip-rule="evenodd" d="M69.4998 24.2655C69.699 24.4648 69.8109 24.735 69.8109 25.0167C69.8109 25.2985 69.699 25.5687 69.4998 25.7679L61.536 33.7317C61.4308 33.837 61.3058 33.9205 61.1683 33.9775C61.0308 34.0344 60.8834 34.0637 60.7345 34.0637C60.5857 34.0637 60.4383 34.0344 60.3007 33.9775C60.1632 33.9205 60.0383 33.837 59.933 33.7317L55.9763 29.7757C55.8748 29.6777 55.7939 29.5604 55.7382 29.4308C55.6825 29.3012 55.6532 29.1617 55.652 29.0207C55.6507 28.8796 55.6776 28.7397 55.731 28.6091C55.7845 28.4785 55.8634 28.3599 55.9631 28.2601C56.0629 28.1604 56.1815 28.0815 56.3121 28.028C56.4427 27.9746 56.5826 27.9477 56.7236 27.949C56.8647 27.9502 57.0041 27.9795 57.1338 28.0352C57.2634 28.0909 57.3806 28.1718 57.4787 28.2733L60.7342 31.5288L67.9967 24.2655C68.0954 24.1668 68.2125 24.0885 68.3415 24.035C68.4704 23.9816 68.6087 23.9541 68.7482 23.9541C68.8878 23.9541 69.0261 23.9816 69.155 24.035C69.284 24.0885 69.4011 24.1668 69.4998 24.2655Z" fill="white"/>
</g>
</g>
<path d="M110.594 33.9085H106.926L106.338 35.6445H103.832L107.388 25.8165H110.16L113.716 35.6445H111.182L110.594 33.9085ZM109.978 32.0605L108.76 28.4625L107.556 32.0605H109.978ZM117.268 25.2845V35.6445H114.874V25.2845H117.268ZM122.999 29.8205H121.711V35.6445H119.317V29.8205H118.449V27.8325H119.317V27.6085C119.317 26.6471 119.593 25.9191 120.143 25.4245C120.694 24.9205 121.501 24.6685 122.565 24.6685C122.743 24.6685 122.873 24.6731 122.957 24.6825V26.7125C122.5 26.6845 122.178 26.7498 121.991 26.9085C121.805 27.0671 121.711 27.3518 121.711 27.7625V27.8325H122.999V29.8205ZM123.724 31.7245C123.724 30.9218 123.873 30.2171 124.172 29.6105C124.48 29.0038 124.895 28.5371 125.418 28.2105C125.941 27.8838 126.524 27.7205 127.168 27.7205C127.719 27.7205 128.199 27.8325 128.61 28.0565C129.03 28.2805 129.352 28.5745 129.576 28.9385V27.8325H131.97V35.6445H129.576V34.5385C129.343 34.9025 129.016 35.1965 128.596 35.4205C128.185 35.6445 127.705 35.7565 127.154 35.7565C126.519 35.7565 125.941 35.5931 125.418 35.2665C124.895 34.9305 124.48 34.4591 124.172 33.8525C123.873 33.2365 123.724 32.5271 123.724 31.7245ZM129.576 31.7385C129.576 31.1411 129.408 30.6698 129.072 30.3245C128.745 29.9791 128.344 29.8065 127.868 29.8065C127.392 29.8065 126.986 29.9791 126.65 30.3245C126.323 30.6605 126.16 31.1271 126.16 31.7245C126.16 32.3218 126.323 32.7978 126.65 33.1525C126.986 33.4978 127.392 33.6705 127.868 33.6705C128.344 33.6705 128.745 33.4978 129.072 33.1525C129.408 32.8071 129.576 32.3358 129.576 31.7385ZM136.172 28.9385C136.396 28.5745 136.718 28.2805 137.138 28.0565C137.558 27.8325 138.039 27.7205 138.58 27.7205C139.224 27.7205 139.807 27.8838 140.33 28.2105C140.853 28.5371 141.263 29.0038 141.562 29.6105C141.87 30.2171 142.024 30.9218 142.024 31.7245C142.024 32.5271 141.87 33.2365 141.562 33.8525C141.263 34.4591 140.853 34.9305 140.33 35.2665C139.807 35.5931 139.224 35.7565 138.58 35.7565C138.029 35.7565 137.549 35.6491 137.138 35.4345C136.727 35.2105 136.405 34.9165 136.172 34.5525V35.6445H133.778V25.2845H136.172V28.9385ZM139.588 31.7245C139.588 31.1271 139.42 30.6605 139.084 30.3245C138.757 29.9791 138.351 29.8065 137.866 29.8065C137.39 29.8065 136.984 29.9791 136.648 30.3245C136.321 30.6698 136.158 31.1411 136.158 31.7385C136.158 32.3358 136.321 32.8071 136.648 33.1525C136.984 33.4978 137.39 33.6705 137.866 33.6705C138.342 33.6705 138.748 33.4978 139.084 33.1525C139.42 32.7978 139.588 32.3218 139.588 31.7245ZM150.72 31.6125C150.72 31.8365 150.706 32.0698 150.678 32.3125H145.26C145.297 32.7978 145.451 33.1711 145.722 33.4325C146.002 33.6845 146.342 33.8105 146.744 33.8105C147.341 33.8105 147.756 33.5585 147.99 33.0545H150.538C150.407 33.5678 150.169 34.0298 149.824 34.4405C149.488 34.8511 149.063 35.1731 148.55 35.4065C148.036 35.6398 147.462 35.7565 146.828 35.7565C146.062 35.7565 145.381 35.5931 144.784 35.2665C144.186 34.9398 143.72 34.4731 143.384 33.8665C143.048 33.2598 142.88 32.5505 142.88 31.7385C142.88 30.9265 143.043 30.2171 143.37 29.6105C143.706 29.0038 144.172 28.5371 144.77 28.2105C145.367 27.8838 146.053 27.7205 146.828 27.7205C147.584 27.7205 148.256 27.8791 148.844 28.1965C149.432 28.5138 149.889 28.9665 150.216 29.5545C150.552 30.1425 150.72 30.8285 150.72 31.6125ZM148.27 30.9825C148.27 30.5718 148.13 30.2451 147.85 30.0025C147.57 29.7598 147.22 29.6385 146.8 29.6385C146.398 29.6385 146.058 29.7551 145.778 29.9885C145.507 30.2218 145.339 30.5531 145.274 30.9825H148.27ZM156.413 33.6145V35.6445H155.195C154.327 35.6445 153.65 35.4345 153.165 35.0145C152.679 34.5851 152.437 33.8898 152.437 32.9285V29.8205H151.485V27.8325H152.437V25.9285H154.831V27.8325H156.399V29.8205H154.831V32.9565C154.831 33.1898 154.887 33.3578 154.999 33.4605C155.111 33.5631 155.297 33.6145 155.559 33.6145H156.413ZM161.378 35.7565C160.613 35.7565 159.922 35.5931 159.306 35.2665C158.699 34.9398 158.219 34.4731 157.864 33.8665C157.519 33.2598 157.346 32.5505 157.346 31.7385C157.346 30.9358 157.523 30.2311 157.878 29.6245C158.233 29.0085 158.718 28.5371 159.334 28.2105C159.95 27.8838 160.641 27.7205 161.406 27.7205C162.171 27.7205 162.862 27.8838 163.478 28.2105C164.094 28.5371 164.579 29.0085 164.934 29.6245C165.289 30.2311 165.466 30.9358 165.466 31.7385C165.466 32.5411 165.284 33.2505 164.92 33.8665C164.565 34.4731 164.075 34.9398 163.45 35.2665C162.834 35.5931 162.143 35.7565 161.378 35.7565ZM161.378 33.6845C161.835 33.6845 162.223 33.5165 162.54 33.1805C162.867 32.8445 163.03 32.3638 163.03 31.7385C163.03 31.1131 162.871 30.6325 162.554 30.2965C162.246 29.9605 161.863 29.7925 161.406 29.7925C160.939 29.7925 160.552 29.9605 160.244 30.2965C159.936 30.6231 159.782 31.1038 159.782 31.7385C159.782 32.3638 159.931 32.8445 160.23 33.1805C160.538 33.5165 160.921 33.6845 161.378 33.6845Z" fill="#194650"/>
</g>
<defs>
<filter id="filter0_d_2071_34246" x="2.52724e-05" y="1.26362e-05" width="381.428" height="69.7778" filterUnits="userSpaceOnUse" color-interpolation-filters="sRGB">
<feFlood flood-opacity="0" result="BackgroundImageFix"/>
<feColorMatrix in="SourceAlpha" type="matrix" values="0 0 0 0 0 0 0 0 0 0 0 0 0 0 0 0 0 0 127 0" result="hardAlpha"/>
<feOffset dy="3.64446"/>
<feGaussianBlur stdDeviation="3.64446"/>
<feComposite in2="hardAlpha" operator="out"/>
<feColorMatrix type="matrix" values="0 0 0 0 0 0 0 0 0 0 0 0 0 0 0 0 0 0 0.25 0"/>
<feBlend mode="normal" in2="BackgroundImageFix" result="effect1_dropShadow_2071_34246"/>
<feBlend mode="normal" in="SourceGraphic" in2="effect1_dropShadow_2071_34246" result="shape"/>
</filter>
<clipPath id="clip0_2071_34246">
<rect width="44.6446" height="44.6446" fill="white" transform="translate(41.4146 9.11066)"/>
</clipPath>
<clipPath id="clip1_2071_34246">
<rect width="29.8079" height="29.8079" fill="white" transform="translate(47.6169 17.1492)"/>
</clipPath>
</defs>
</svg>
