<svg width="95" height="151" viewBox="0 0 95 151" fill="none" xmlns="http://www.w3.org/2000/svg">
<rect x="0.5" y="0.5" width="94" height="149.2" rx="4.5" stroke="#8A38F5" stroke-dasharray="10 5"/>
<path d="M29.768 49C29.256 49 28.864 48.864 28.592 48.592C28.32 48.32 28.184 47.944 28.184 47.464C28.184 46.968 28.32 46.592 28.592 46.336C28.864 46.08 29.256 45.952 29.768 45.952H32.192V35.128H33.944L30.44 37.264C30.072 37.488 29.728 37.576 29.408 37.528C29.104 37.48 28.84 37.344 28.616 37.12C28.392 36.896 28.24 36.632 28.16 36.328C28.096 36.008 28.128 35.696 28.256 35.392C28.384 35.072 28.624 34.8 28.976 34.576L32.312 32.56C32.648 32.352 32.984 32.184 33.32 32.056C33.672 31.928 34.016 31.864 34.352 31.864C34.832 31.864 35.208 31.992 35.48 32.248C35.768 32.488 35.912 32.864 35.912 33.376V45.952H38.096C38.592 45.952 38.976 46.08 39.248 46.336C39.52 46.592 39.656 46.968 39.656 47.464C39.656 47.96 39.52 48.344 39.248 48.616C38.976 48.872 38.592 49 38.096 49H29.768ZM43.7026 49C43.1106 49 42.6706 48.864 42.3826 48.592C42.1106 48.304 41.9746 47.888 41.9746 47.344C41.9746 46.992 42.0626 46.664 42.2386 46.36C42.4146 46.056 42.6546 45.744 42.9586 45.424L47.4706 40.672C48.1426 39.952 48.6226 39.312 48.9106 38.752C49.2146 38.192 49.3666 37.632 49.3666 37.072C49.3666 36.368 49.1346 35.832 48.6706 35.464C48.2226 35.096 47.5666 34.912 46.7026 34.912C46.2386 34.912 45.7586 34.984 45.2626 35.128C44.7826 35.256 44.2786 35.472 43.7506 35.776C43.3986 35.968 43.0706 36.04 42.7666 35.992C42.4786 35.928 42.2306 35.792 42.0226 35.584C41.8146 35.36 41.6786 35.096 41.6146 34.792C41.5506 34.488 41.5826 34.184 41.7106 33.88C41.8386 33.576 42.0786 33.32 42.4306 33.112C43.1346 32.68 43.9026 32.36 44.7346 32.152C45.5666 31.928 46.3906 31.816 47.2066 31.816C48.4706 31.816 49.5346 32.008 50.3986 32.392C51.2626 32.76 51.9186 33.304 52.3666 34.024C52.8146 34.744 53.0386 35.624 53.0386 36.664C53.0386 37.336 52.9346 37.992 52.7266 38.632C52.5186 39.272 52.1906 39.92 51.7426 40.576C51.3106 41.216 50.7346 41.904 50.0146 42.64L45.8146 46.912V45.952H52.3186C52.8306 45.952 53.2146 46.08 53.4706 46.336C53.7426 46.592 53.8786 46.968 53.8786 47.464C53.8786 47.96 53.7426 48.344 53.4706 48.616C53.2146 48.872 52.8306 49 52.3186 49H43.7026ZM61.5733 49.264C60.7253 49.264 59.8613 49.168 58.9813 48.976C58.1173 48.768 57.3653 48.48 56.7253 48.112C56.3093 47.888 56.0213 47.624 55.8613 47.32C55.7173 47 55.6613 46.688 55.6933 46.384C55.7413 46.08 55.8693 45.816 56.0773 45.592C56.2853 45.352 56.5493 45.2 56.8693 45.136C57.2053 45.072 57.5733 45.136 57.9733 45.328C58.5973 45.632 59.1893 45.848 59.7493 45.976C60.3093 46.104 60.8693 46.168 61.4293 46.168C62.0693 46.168 62.6053 46.088 63.0373 45.928C63.4693 45.752 63.7973 45.504 64.0213 45.184C64.2453 44.864 64.3573 44.464 64.3573 43.984C64.3573 43.312 64.1253 42.808 63.6613 42.472C63.1973 42.136 62.5173 41.968 61.6213 41.968H60.2053C59.6773 41.968 59.2693 41.84 58.9813 41.584C58.7093 41.312 58.5733 40.944 58.5733 40.48C58.5733 40 58.7093 39.632 58.9813 39.376C59.2693 39.104 59.6773 38.968 60.2053 38.968H61.2613C61.8053 38.968 62.2613 38.888 62.6293 38.728C63.0133 38.552 63.3093 38.312 63.5173 38.008C63.7413 37.704 63.8533 37.328 63.8533 36.88C63.8533 36.24 63.6293 35.752 63.1813 35.416C62.7493 35.08 62.1173 34.912 61.2853 34.912C60.7733 34.912 60.2693 34.976 59.7733 35.104C59.2773 35.216 58.7413 35.424 58.1653 35.728C57.8133 35.904 57.4853 35.96 57.1813 35.896C56.8773 35.832 56.6213 35.688 56.4133 35.464C56.2213 35.24 56.0933 34.984 56.0293 34.696C55.9813 34.392 56.0213 34.088 56.1493 33.784C56.2933 33.48 56.5493 33.232 56.9173 33.04C57.6053 32.64 58.3493 32.336 59.1493 32.128C59.9653 31.92 60.7893 31.816 61.6213 31.816C62.8373 31.816 63.8773 32 64.7413 32.368C65.6053 32.736 66.2693 33.264 66.7333 33.952C67.1973 34.624 67.4293 35.44 67.4293 36.4C67.4293 37.056 67.3013 37.656 67.0453 38.2C66.7893 38.744 66.4293 39.208 65.9653 39.592C65.5173 39.96 64.9653 40.224 64.3093 40.384V40.072C65.4453 40.264 66.3333 40.736 66.9733 41.488C67.6133 42.24 67.9333 43.184 67.9333 44.32C67.9333 45.328 67.6773 46.208 67.1653 46.96C66.6533 47.696 65.9173 48.264 64.9573 48.664C64.0133 49.064 62.8853 49.264 61.5733 49.264Z" fill="#194650"/>
<path d="M61.1936 55.2392C62.2336 55.2392 63.2935 55.2593 64.3335 55.2392C65.0534 55.219 65.6334 54.8771 65.6934 54.0524C65.7334 53.1874 65.1334 52.8656 64.4135 52.8455C62.2136 52.8052 60.0336 52.8253 57.8337 52.8253C57.0938 52.8253 56.5138 53.107 56.5138 53.9719C56.4938 54.8167 57.0138 55.1788 57.7737 55.1989C58.9137 55.2593 60.0536 55.2392 61.1936 55.2392Z" fill="#DAB16D" stroke="#DAB16D" stroke-width="2"/>
<rect x="20" y="20" width="55" height="45.1" rx="8.25" stroke="#194650" stroke-width="4"/>
<path d="M29.768 114.1C29.256 114.1 28.864 113.964 28.592 113.692C28.32 113.42 28.184 113.044 28.184 112.564C28.184 112.068 28.32 111.692 28.592 111.436C28.864 111.18 29.256 111.052 29.768 111.052H32.192V100.228H33.944L30.44 102.364C30.072 102.588 29.728 102.676 29.408 102.628C29.104 102.58 28.84 102.444 28.616 102.22C28.392 101.996 28.24 101.732 28.16 101.428C28.096 101.108 28.128 100.796 28.256 100.492C28.384 100.172 28.624 99.9001 28.976 99.6761L32.312 97.6601C32.648 97.4521 32.984 97.2841 33.32 97.1561C33.672 97.0281 34.016 96.9641 34.352 96.9641C34.832 96.9641 35.208 97.0921 35.48 97.3481C35.768 97.5881 35.912 97.9641 35.912 98.4761V111.052H38.096C38.592 111.052 38.976 111.18 39.248 111.436C39.52 111.692 39.656 112.068 39.656 112.564C39.656 113.06 39.52 113.444 39.248 113.716C38.976 113.972 38.592 114.1 38.096 114.1H29.768ZM43.7026 114.1C43.1106 114.1 42.6706 113.964 42.3826 113.692C42.1106 113.404 41.9746 112.988 41.9746 112.444C41.9746 112.092 42.0626 111.764 42.2386 111.46C42.4146 111.156 42.6546 110.844 42.9586 110.524L47.4706 105.772C48.1426 105.052 48.6226 104.412 48.9106 103.852C49.2146 103.292 49.3666 102.732 49.3666 102.172C49.3666 101.468 49.1346 100.932 48.6706 100.564C48.2226 100.196 47.5666 100.012 46.7026 100.012C46.2386 100.012 45.7586 100.084 45.2626 100.228C44.7826 100.356 44.2786 100.572 43.7506 100.876C43.3986 101.068 43.0706 101.14 42.7666 101.092C42.4786 101.028 42.2306 100.892 42.0226 100.684C41.8146 100.46 41.6786 100.196 41.6146 99.8921C41.5506 99.5881 41.5826 99.2841 41.7106 98.9801C41.8386 98.6761 42.0786 98.4201 42.4306 98.2121C43.1346 97.7801 43.9026 97.4601 44.7346 97.2521C45.5666 97.0281 46.3906 96.9161 47.2066 96.9161C48.4706 96.9161 49.5346 97.1081 50.3986 97.4921C51.2626 97.8601 51.9186 98.4041 52.3666 99.1241C52.8146 99.8441 53.0386 100.724 53.0386 101.764C53.0386 102.436 52.9346 103.092 52.7266 103.732C52.5186 104.372 52.1906 105.02 51.7426 105.676C51.3106 106.316 50.7346 107.004 50.0146 107.74L45.8146 112.012V111.052H52.3186C52.8306 111.052 53.2146 111.18 53.4706 111.436C53.7426 111.692 53.8786 112.068 53.8786 112.564C53.8786 113.06 53.7426 113.444 53.4706 113.716C53.2146 113.972 52.8306 114.1 52.3186 114.1H43.7026ZM61.5733 114.364C60.7253 114.364 59.8613 114.268 58.9813 114.076C58.1173 113.868 57.3653 113.58 56.7253 113.212C56.3093 112.988 56.0213 112.724 55.8613 112.42C55.7173 112.1 55.6613 111.788 55.6933 111.484C55.7413 111.18 55.8693 110.916 56.0773 110.692C56.2853 110.452 56.5493 110.3 56.8693 110.236C57.2053 110.172 57.5733 110.236 57.9733 110.428C58.5973 110.732 59.1893 110.948 59.7493 111.076C60.3093 111.204 60.8693 111.268 61.4293 111.268C62.0693 111.268 62.6053 111.188 63.0373 111.028C63.4693 110.852 63.7973 110.604 64.0213 110.284C64.2453 109.964 64.3573 109.564 64.3573 109.084C64.3573 108.412 64.1253 107.908 63.6613 107.572C63.1973 107.236 62.5173 107.068 61.6213 107.068H60.2053C59.6773 107.068 59.2693 106.94 58.9813 106.684C58.7093 106.412 58.5733 106.044 58.5733 105.58C58.5733 105.1 58.7093 104.732 58.9813 104.476C59.2693 104.204 59.6773 104.068 60.2053 104.068H61.2613C61.8053 104.068 62.2613 103.988 62.6293 103.828C63.0133 103.652 63.3093 103.412 63.5173 103.108C63.7413 102.804 63.8533 102.428 63.8533 101.98C63.8533 101.34 63.6293 100.852 63.1813 100.516C62.7493 100.18 62.1173 100.012 61.2853 100.012C60.7733 100.012 60.2693 100.076 59.7733 100.204C59.2773 100.316 58.7413 100.524 58.1653 100.828C57.8133 101.004 57.4853 101.06 57.1813 100.996C56.8773 100.932 56.6213 100.788 56.4133 100.564C56.2213 100.34 56.0933 100.084 56.0293 99.7961C55.9813 99.4921 56.0213 99.1881 56.1493 98.8841C56.2933 98.5801 56.5493 98.3321 56.9173 98.1401C57.6053 97.7401 58.3493 97.4361 59.1493 97.2281C59.9653 97.0201 60.7893 96.9161 61.6213 96.9161C62.8373 96.9161 63.8773 97.1001 64.7413 97.4681C65.6053 97.8361 66.2693 98.3641 66.7333 99.0521C67.1973 99.7241 67.4293 100.54 67.4293 101.5C67.4293 102.156 67.3013 102.756 67.0453 103.3C66.7893 103.844 66.4293 104.308 65.9653 104.692C65.5173 105.06 64.9653 105.324 64.3093 105.484V105.172C65.4453 105.364 66.3333 105.836 66.9733 106.588C67.6133 107.34 67.9333 108.284 67.9333 109.42C67.9333 110.428 67.6773 111.308 67.1653 112.06C66.6533 112.796 65.9173 113.364 64.9573 113.764C64.0133 114.164 62.8853 114.364 61.5733 114.364Z" fill="white"/>
<path d="M61.1936 120.339C62.2336 120.339 63.2935 120.359 64.3335 120.339C65.0534 120.319 65.6334 119.977 65.6934 119.152C65.7334 118.288 65.1334 117.966 64.4135 117.946C62.2136 117.905 60.0336 117.925 57.8337 117.925C57.0938 117.925 56.5138 118.207 56.5138 119.072C56.4938 119.917 57.0138 120.279 57.7737 120.299C58.9137 120.359 60.0536 120.339 61.1936 120.339Z" fill="#DAB16D" stroke="#DAB16D" stroke-width="2"/>
<rect x="20" y="85.1001" width="55" height="45.1" rx="8.25" stroke="white" stroke-width="4"/>
</svg>
