<svg width="54" height="54" viewBox="0 0 54 54" fill="none" xmlns="http://www.w3.org/2000/svg">
<g filter="url(#filter0_d_2096_2959)">
<rect x="4" width="46" height="46" rx="23" fill="#194650" shape-rendering="crispEdges"/>
<path d="M24.5622 31.9917C23.2556 31.9917 21.9627 32.0172 20.6561 31.9789C19.2815 31.9406 18.4377 31.2639 17.866 30.0638C17.2264 28.7105 17.3489 27.7785 18.846 27.0891C19.9075 26.5912 20.4247 25.7486 20.5336 24.5995C20.6969 22.7738 21.01 20.9737 21.2005 19.1608C21.4999 16.3776 23.7592 14.2199 26.6173 14.0156C29.4754 13.8114 32.0204 15.6243 32.6057 18.4586C32.9731 20.246 33.1501 22.0717 33.2998 23.8973C33.4087 25.3528 33.9258 26.5529 35.3277 27.2168C37.1922 28.0977 36.3893 29.3744 35.9129 30.4979C35.3957 31.7236 34.2117 32.1066 32.8507 31.9661C32.4287 31.9278 32.0749 31.7619 32.0341 31.3278C31.9796 30.8299 32.3335 30.5873 32.7962 30.4085C34.9602 29.5787 35.0146 29.4127 33.3134 27.9317C31.8435 26.655 31.6121 24.9698 31.408 23.2718C31.2311 21.8802 31.163 20.4758 30.9861 19.0842C30.7411 17.1691 29.2032 15.8158 27.2433 15.7264C25.1474 15.6243 23.4734 16.8116 23.1195 18.8161C22.7929 20.6162 22.5751 22.4419 22.3846 24.2548C22.2212 25.8379 21.6768 27.2168 20.275 28.2126C19.8259 28.5318 19.2951 28.8382 19.6081 29.5532C19.9075 30.2426 20.4656 30.3702 21.1733 30.3702C23.5142 30.3575 25.8551 30.3702 28.196 30.3702C28.9174 30.3702 29.802 30.2936 29.7748 31.2384C29.7612 32.0938 28.9174 31.9789 28.2777 31.9789C27.0256 31.9789 25.7871 31.9789 24.5622 31.9917C24.5622 31.9789 24.5622 31.9789 24.5622 31.9917Z" fill="white"/>
<path d="M27.0269 26.7485C27.9252 26.7485 28.8371 26.723 29.7353 26.7613C30.2933 26.7868 30.7697 27.0422 30.7561 27.6295C30.7425 28.1401 30.2525 28.3572 29.8034 28.3699C27.9388 28.4082 26.0606 28.4082 24.196 28.3827C23.7061 28.3827 23.2842 28.1018 23.2842 27.6039C23.2842 27.0294 23.7333 26.7485 24.3185 26.7358C25.2168 26.723 26.1287 26.7358 27.0269 26.7485Z" fill="white"/>
</g>
<defs>
<filter id="filter0_d_2096_2959" x="0" y="0" width="54" height="54" filterUnits="userSpaceOnUse" color-interpolation-filters="sRGB">
<feFlood flood-opacity="0" result="BackgroundImageFix"/>
<feColorMatrix in="SourceAlpha" type="matrix" values="0 0 0 0 0 0 0 0 0 0 0 0 0 0 0 0 0 0 127 0" result="hardAlpha"/>
<feOffset dy="4"/>
<feGaussianBlur stdDeviation="2"/>
<feComposite in2="hardAlpha" operator="out"/>
<feColorMatrix type="matrix" values="0 0 0 0 0 0 0 0 0 0 0 0 0 0 0 0 0 0 0.25 0"/>
<feBlend mode="normal" in2="BackgroundImageFix" result="effect1_dropShadow_2096_2959"/>
<feBlend mode="normal" in="SourceGraphic" in2="effect1_dropShadow_2096_2959" result="shape"/>
</filter>
</defs>
</svg>
