<svg width="55" height="55" viewBox="0 0 55 55" fill="none" xmlns="http://www.w3.org/2000/svg">
<g filter="url(#filter0_d_2096_2455)">
<rect x="4.5" y="0.5" width="46" height="46" rx="23" fill="white" shape-rendering="crispEdges"/>
<rect x="4.5" y="0.5" width="46" height="46" rx="23" stroke="#194650" shape-rendering="crispEdges"/>
<path d="M23.7021 23.5001C23.7021 23.3161 23.7262 23.1436 23.7745 22.9826C23.8229 22.8216 23.905 22.6721 24.021 22.5341L29.3554 16.1861C29.568 15.9331 29.8386 15.8066 30.1672 15.8066C30.4958 15.8066 30.7663 15.9331 30.9789 16.1861C31.1915 16.4391 31.2979 16.7611 31.2979 17.1521C31.2979 17.5431 31.1915 17.8651 30.9789 18.1181L26.4563 23.5001L30.9789 28.8821C31.1915 29.1351 31.2979 29.4571 31.2979 29.8481C31.2979 30.2391 31.1915 30.5611 30.9789 30.8141C30.7663 31.0671 30.4958 31.1936 30.1672 31.1936C29.8386 31.1936 29.568 31.0671 29.3554 30.8141L24.021 24.4661C23.905 24.3281 23.8229 24.1786 23.7745 24.0176C23.7262 23.8566 23.7021 23.6841 23.7021 23.5001Z" fill="#194650"/>
</g>
<defs>
<filter id="filter0_d_2096_2455" x="0" y="0" width="55" height="55" filterUnits="userSpaceOnUse" color-interpolation-filters="sRGB">
<feFlood flood-opacity="0" result="BackgroundImageFix"/>
<feColorMatrix in="SourceAlpha" type="matrix" values="0 0 0 0 0 0 0 0 0 0 0 0 0 0 0 0 0 0 127 0" result="hardAlpha"/>
<feOffset dy="4"/>
<feGaussianBlur stdDeviation="2"/>
<feComposite in2="hardAlpha" operator="out"/>
<feColorMatrix type="matrix" values="0 0 0 0 0 0 0 0 0 0 0 0 0 0 0 0 0 0 0.25 0"/>
<feBlend mode="normal" in2="BackgroundImageFix" result="effect1_dropShadow_2096_2455"/>
<feBlend mode="normal" in="SourceGraphic" in2="effect1_dropShadow_2096_2455" result="shape"/>
</filter>
</defs>
</svg>
