<svg width="84" height="144" viewBox="0 0 84 144" fill="none" xmlns="http://www.w3.org/2000/svg">
<rect x="0.5" y="0.5" width="83" height="143" rx="4.5" stroke="#8A38F5" stroke-dasharray="10 5"/>
<path d="M53.1875 24.9167V20M31.0625 24.9167V20M20.6146 32.2917H63.6354M20 37.3165C20 32.1171 20 29.5162 21.0718 27.5299C22.041 25.7582 23.5449 24.3377 25.369 23.4712C27.4733 22.4583 30.2267 22.4583 35.7333 22.4583H48.5167C54.0233 22.4583 56.7767 22.4583 58.881 23.4712C60.7321 24.3611 62.2342 25.782 63.1782 27.5274C64.25 29.5187 64.25 32.1196 64.25 37.319V49.3943C64.25 54.5937 64.25 57.1946 63.1782 59.1809C62.209 60.9526 60.7051 62.3731 58.881 63.2396C56.7767 64.25 54.0233 64.25 48.5167 64.25H35.7333C30.2267 64.25 27.4733 64.25 25.369 63.2372C23.5453 62.3712 22.0414 60.9517 21.0718 59.1809C20 57.1897 20 54.5887 20 49.3894V37.3165Z" stroke="#194650" stroke-width="4" stroke-linecap="round" stroke-linejoin="round"/>
<path d="M46.7266 45.6326C49.5679 45.6326 52.3762 45.666 55.2175 45.6326C56.506 45.5992 57.8606 45.3989 57.9597 43.6956C58.0588 41.959 56.7042 41.6584 55.3827 41.6584C49.7331 41.625 44.0505 41.625 38.4009 41.625C37.0793 41.625 35.6586 41.9256 35.6256 43.5286C35.5926 45.4656 37.2445 45.5992 38.6982 45.5992C41.3743 45.666 44.0505 45.6326 46.7266 45.6326Z" fill="#DAB16D" stroke="#DAB16D" stroke-width="1.47383"/>
<path d="M50.528 55.2386C52.246 55.2386 53.9971 55.272 55.7151 55.2386C56.9045 55.2052 57.8626 54.6375 57.9617 53.2682C58.0278 51.8321 57.0366 51.2978 55.8472 51.2644C52.213 51.1976 48.6118 51.231 44.9775 51.231C43.7551 51.231 42.797 51.6986 42.797 53.1346C42.764 54.5373 43.623 55.1384 44.8784 55.1718C46.7616 55.272 48.6448 55.2386 50.528 55.2386Z" fill="#DAB16D" stroke="#DAB16D" stroke-width="1.47383"/>
<path d="M53.1875 89.1667V84.25M31.0625 89.1667V84.25M20.6146 96.5417H63.6354M20 101.566C20 96.3671 20 93.7662 21.0718 91.7799C22.041 90.0082 23.5449 88.5877 25.369 87.7212C27.4733 86.7083 30.2267 86.7083 35.7333 86.7083H48.5167C54.0233 86.7083 56.7767 86.7083 58.881 87.7212C60.7321 88.6111 62.2342 90.032 63.1782 91.7774C64.25 93.7687 64.25 96.3696 64.25 101.569V113.644C64.25 118.844 64.25 121.445 63.1782 123.431C62.209 125.203 60.7051 126.623 58.881 127.49C56.7767 128.5 54.0233 128.5 48.5167 128.5H35.7333C30.2267 128.5 27.4733 128.5 25.369 127.487C23.5453 126.621 22.0414 125.202 21.0718 123.431C20 121.44 20 118.839 20 113.639V101.566Z" stroke="white" stroke-width="4" stroke-linecap="round" stroke-linejoin="round"/>
<path d="M46.7266 109.883C49.5679 109.883 52.3762 109.916 55.2175 109.883C56.506 109.849 57.8606 109.649 57.9597 107.946C58.0588 106.209 56.7042 105.908 55.3827 105.908C49.7331 105.875 44.0505 105.875 38.4009 105.875C37.0793 105.875 35.6586 106.176 35.6256 107.779C35.5926 109.716 37.2445 109.849 38.6982 109.849C41.3743 109.916 44.0505 109.883 46.7266 109.883Z" fill="#DAB16D" stroke="#DAB16D" stroke-width="1.47383"/>
<path d="M50.528 119.489C52.246 119.489 53.9971 119.522 55.7151 119.489C56.9045 119.455 57.8626 118.887 57.9617 117.518C58.0278 116.082 57.0366 115.548 55.8472 115.514C52.213 115.448 48.6118 115.481 44.9775 115.481C43.7551 115.481 42.797 115.949 42.797 117.385C42.764 118.787 43.623 119.388 44.8784 119.422C46.7616 119.522 48.6448 119.489 50.528 119.489Z" fill="#DAB16D" stroke="#DAB16D" stroke-width="1.47383"/>
</svg>
