<svg width="155" height="165" viewBox="0 0 155 165" fill="none" xmlns="http://www.w3.org/2000/svg">
<rect width="155" height="165" rx="25" fill="#194650"/>
<rect x="29" y="36" width="96" height="93" rx="18" stroke="white" stroke-width="4"/>
<path d="M73.8134 73C73.2854 73 72.8774 72.864 72.5894 72.592C72.3174 72.304 72.1814 71.896 72.1814 71.368V57.712C72.1814 57.184 72.3174 56.784 72.5894 56.512C72.8774 56.224 73.2854 56.08 73.8134 56.08H79.5734C80.7574 56.08 81.7654 56.256 82.5974 56.608C83.4294 56.96 84.0614 57.464 84.4934 58.12C84.9414 58.776 85.1654 59.56 85.1654 60.472C85.1654 61.496 84.8694 62.36 84.2774 63.064C83.6854 63.768 82.8774 64.24 81.8534 64.48V64.12C83.0374 64.296 83.9574 64.744 84.6134 65.464C85.2694 66.184 85.5974 67.12 85.5974 68.272C85.5974 69.776 85.0854 70.944 84.0614 71.776C83.0534 72.592 81.6454 73 79.8374 73H73.8134ZM75.1334 70.672H79.4534C80.5414 70.672 81.3414 70.464 81.8534 70.048C82.3654 69.616 82.6214 68.976 82.6214 68.128C82.6214 67.264 82.3654 66.624 81.8534 66.208C81.3414 65.792 80.5414 65.584 79.4534 65.584H75.1334V70.672ZM75.1334 63.256H79.0454C80.1014 63.256 80.8854 63.056 81.3974 62.656C81.9254 62.24 82.1894 61.632 82.1894 60.832C82.1894 60.032 81.9254 59.432 81.3974 59.032C80.8854 58.616 80.1014 58.408 79.0454 58.408H75.1334V63.256Z" fill="#DAB16D"/>
<path d="M49.016 110.192C48.632 110.192 48.32 110.104 48.08 109.928C47.856 109.752 47.72 109.52 47.672 109.232C47.624 108.928 47.68 108.592 47.84 108.224L54.176 94.184C54.384 93.72 54.632 93.392 54.92 93.2C55.224 92.992 55.568 92.888 55.952 92.888C56.32 92.888 56.648 92.992 56.936 93.2C57.24 93.392 57.496 93.72 57.704 94.184L64.064 108.224C64.24 108.592 64.304 108.928 64.256 109.232C64.208 109.536 64.072 109.776 63.848 109.952C63.624 110.112 63.328 110.192 62.96 110.192C62.512 110.192 62.16 110.088 61.904 109.88C61.664 109.656 61.448 109.32 61.256 108.872L59.696 105.248L60.992 106.088H50.864L52.16 105.248L50.624 108.872C50.416 109.336 50.2 109.672 49.976 109.88C49.752 110.088 49.432 110.192 49.016 110.192ZM55.904 96.416L52.544 104.408L51.92 103.64H59.936L59.336 104.408L55.952 96.416H55.904Z" fill="white"/>
<path d="M103.387 110.24C101.627 110.24 100.115 109.888 98.8506 109.184C97.6026 108.464 96.6426 107.456 95.9706 106.16C95.2986 104.848 94.9626 103.304 94.9626 101.528C94.9626 100.2 95.1546 99.008 95.5386 97.952C95.9226 96.88 96.4746 95.968 97.1946 95.216C97.9146 94.448 98.7946 93.864 99.8346 93.464C100.891 93.048 102.075 92.84 103.387 92.84C104.267 92.84 105.131 92.952 105.979 93.176C106.827 93.4 107.571 93.72 108.211 94.136C108.547 94.344 108.771 94.6 108.883 94.904C108.995 95.192 109.019 95.48 108.955 95.768C108.891 96.04 108.755 96.272 108.547 96.464C108.355 96.656 108.107 96.768 107.803 96.8C107.515 96.816 107.195 96.712 106.843 96.488C106.347 96.168 105.811 95.936 105.235 95.792C104.659 95.648 104.075 95.576 103.483 95.576C102.347 95.576 101.387 95.808 100.603 96.272C99.8186 96.736 99.2266 97.408 98.8266 98.288C98.4266 99.168 98.2266 100.248 98.2266 101.528C98.2266 102.792 98.4266 103.872 98.8266 104.768C99.2266 105.664 99.8186 106.344 100.603 106.808C101.387 107.272 102.347 107.504 103.483 107.504C104.091 107.504 104.691 107.432 105.283 107.288C105.875 107.128 106.435 106.888 106.963 106.568C107.315 106.36 107.627 106.272 107.899 106.304C108.187 106.32 108.427 106.416 108.619 106.592C108.811 106.768 108.939 106.992 109.003 107.264C109.067 107.52 109.051 107.792 108.955 108.08C108.859 108.352 108.667 108.592 108.379 108.8C107.739 109.264 106.971 109.624 106.075 109.88C105.195 110.12 104.299 110.24 103.387 110.24Z" fill="white"/>
</svg>
