<svg width="68" height="66" viewBox="0 0 68 66" fill="none" xmlns="http://www.w3.org/2000/svg">
<g filter="url(#filter0_d_2096_2432)">
<rect x="4" y="11.6001" width="46" height="46" rx="23" fill="#194650" shape-rendering="crispEdges"/>
<path d="M24.5622 43.5918C23.2556 43.5918 21.9627 43.6173 20.6561 43.579C19.2815 43.5407 18.4377 42.864 17.866 41.6639C17.2264 40.3106 17.3489 39.3786 18.846 38.6892C19.9075 38.1913 20.4247 37.3487 20.5336 36.1996C20.6969 34.3739 21.01 32.5738 21.2005 30.7609C21.4999 27.9776 23.7592 25.82 26.6173 25.6157C29.4754 25.4115 32.0204 27.2244 32.6057 30.0587C32.9731 31.8461 33.1501 33.6718 33.2998 35.4974C33.4087 36.9529 33.9258 38.153 35.3277 38.8169C37.1922 39.6978 36.3893 40.9745 35.9129 42.098C35.3957 43.3237 34.2117 43.7067 32.8507 43.5662C32.4287 43.5279 32.0749 43.362 32.0341 42.9279C31.9796 42.43 32.3335 42.1874 32.7962 42.0086C34.9602 41.1788 35.0146 41.0128 33.3134 39.5318C31.8435 38.2551 31.6121 36.5699 31.408 34.8719C31.2311 33.4803 31.163 32.0759 30.9861 30.6843C30.7411 28.7692 29.2032 27.4159 27.2433 27.3265C25.1474 27.2244 23.4734 28.4117 23.1195 30.4162C22.7929 32.2163 22.5751 34.042 22.3846 35.8549C22.2212 37.438 21.6768 38.8169 20.275 39.8127C19.8259 40.1319 19.2951 40.4383 19.6081 41.1533C19.9075 41.8427 20.4656 41.9703 21.1733 41.9703C23.5142 41.9576 25.8551 41.9703 28.196 41.9703C28.9174 41.9703 29.802 41.8937 29.7748 42.8385C29.7612 43.6939 28.9174 43.579 28.2777 43.579C27.0256 43.579 25.7871 43.579 24.5622 43.5918C24.5622 43.579 24.5622 43.579 24.5622 43.5918Z" fill="white"/>
<path d="M27.0269 38.3486C27.9252 38.3486 28.8371 38.3231 29.7353 38.3614C30.2933 38.3869 30.7697 38.6423 30.7561 39.2295C30.7425 39.7402 30.2525 39.9573 29.8034 39.97C27.9388 40.0083 26.0606 40.0083 24.196 39.9828C23.7061 39.9828 23.2842 39.7019 23.2842 39.204C23.2842 38.6295 23.7333 38.3486 24.3185 38.3359C25.2168 38.3231 26.1287 38.3359 27.0269 38.3486Z" fill="white"/>
</g>
<g filter="url(#filter1_d_2096_2432)">
<rect x="35" y="4.6001" width="23" height="23" rx="11.5" fill="#DAB16D" shape-rendering="crispEdges"/>
</g>
<path d="M44.4635 12.3769V10.3656H47.9675V19.6001H45.7158V12.3769H44.4635Z" fill="#194650"/>
<defs>
<filter id="filter0_d_2096_2432" x="0" y="11.6001" width="54" height="54" filterUnits="userSpaceOnUse" color-interpolation-filters="sRGB">
<feFlood flood-opacity="0" result="BackgroundImageFix"/>
<feColorMatrix in="SourceAlpha" type="matrix" values="0 0 0 0 0 0 0 0 0 0 0 0 0 0 0 0 0 0 127 0" result="hardAlpha"/>
<feOffset dy="4"/>
<feGaussianBlur stdDeviation="2"/>
<feComposite in2="hardAlpha" operator="out"/>
<feColorMatrix type="matrix" values="0 0 0 0 0 0 0 0 0 0 0 0 0 0 0 0 0 0 0.25 0"/>
<feBlend mode="normal" in2="BackgroundImageFix" result="effect1_dropShadow_2096_2432"/>
<feBlend mode="normal" in="SourceGraphic" in2="effect1_dropShadow_2096_2432" result="shape"/>
</filter>
<filter id="filter1_d_2096_2432" x="25.8" y="9.77516e-05" width="41.4" height="41.4" filterUnits="userSpaceOnUse" color-interpolation-filters="sRGB">
<feFlood flood-opacity="0" result="BackgroundImageFix"/>
<feColorMatrix in="SourceAlpha" type="matrix" values="0 0 0 0 0 0 0 0 0 0 0 0 0 0 0 0 0 0 127 0" result="hardAlpha"/>
<feOffset dy="4.6"/>
<feGaussianBlur stdDeviation="4.6"/>
<feComposite in2="hardAlpha" operator="out"/>
<feColorMatrix type="matrix" values="0 0 0 0 0 0 0 0 0 0 0 0 0 0 0 0 0 0 0.12 0"/>
<feBlend mode="normal" in2="BackgroundImageFix" result="effect1_dropShadow_2096_2432"/>
<feBlend mode="normal" in="SourceGraphic" in2="effect1_dropShadow_2096_2432" result="shape"/>
</filter>
</defs>
</svg>
