<svg width="95" height="151" viewBox="0 0 95 151" fill="none" xmlns="http://www.w3.org/2000/svg">
<rect x="0.5" y="0.5" width="94" height="149.2" rx="4.5" stroke="#8A38F5" stroke-dasharray="10 5"/>
<path d="M34.184 46.216C33.736 46.216 33.368 46.112 33.08 45.904C32.808 45.696 32.632 45.416 32.552 45.064C32.488 44.712 32.56 44.32 32.768 43.888L38.912 30.424C39.168 29.88 39.472 29.488 39.824 29.248C40.176 28.992 40.584 28.864 41.048 28.864C41.512 28.864 41.92 28.992 42.272 29.248C42.624 29.488 42.92 29.88 43.16 30.424L49.352 43.888C49.56 44.32 49.632 44.72 49.568 45.088C49.52 45.44 49.36 45.72 49.088 45.928C48.816 46.12 48.464 46.216 48.032 46.216C47.488 46.216 47.064 46.088 46.76 45.832C46.472 45.576 46.216 45.176 45.992 44.632L44.552 41.296L46.04 42.328H36.032L37.52 41.296L36.104 44.632C35.864 45.192 35.608 45.6 35.336 45.856C35.08 46.096 34.696 46.216 34.184 46.216ZM41 33.04L37.928 40.36L37.28 39.424H44.792L44.144 40.36L41.048 33.04H41ZM55.4463 46.264C54.5823 46.264 53.8063 46.096 53.1183 45.76C52.4303 45.424 51.8943 44.968 51.5103 44.392C51.1263 43.816 50.9343 43.168 50.9343 42.448C50.9343 41.584 51.1583 40.904 51.6063 40.408C52.0543 39.896 52.7823 39.536 53.7903 39.328C54.7983 39.104 56.1343 38.992 57.7983 38.992H59.0703V40.864H57.8223C57.0063 40.864 56.3423 40.912 55.8303 41.008C55.3343 41.088 54.9743 41.232 54.7503 41.44C54.5423 41.648 54.4383 41.936 54.4383 42.304C54.4383 42.752 54.5903 43.12 54.8943 43.408C55.2143 43.696 55.6703 43.84 56.2623 43.84C56.7263 43.84 57.1343 43.736 57.4863 43.528C57.8543 43.304 58.1423 43.008 58.3503 42.64C58.5583 42.256 58.6623 41.824 58.6623 41.344V38.584C58.6623 37.88 58.5023 37.384 58.1823 37.096C57.8623 36.792 57.3183 36.64 56.5503 36.64C56.1183 36.64 55.6463 36.696 55.1343 36.808C54.6383 36.904 54.0863 37.072 53.4783 37.312C53.1263 37.472 52.8143 37.512 52.5423 37.432C52.2703 37.336 52.0623 37.176 51.9183 36.952C51.7743 36.712 51.7023 36.456 51.7023 36.184C51.7023 35.896 51.7823 35.624 51.9423 35.368C52.1023 35.096 52.3663 34.896 52.7343 34.768C53.4863 34.464 54.1903 34.256 54.8463 34.144C55.5183 34.032 56.1343 33.976 56.6943 33.976C57.9263 33.976 58.9343 34.16 59.7183 34.528C60.5183 34.88 61.1183 35.432 61.5183 36.184C61.9183 36.92 62.1183 37.872 62.1183 39.04V44.368C62.1183 44.96 61.9743 45.416 61.6863 45.736C61.3983 46.056 60.9823 46.216 60.4383 46.216C59.8943 46.216 59.4703 46.056 59.1663 45.736C58.8783 45.416 58.7343 44.96 58.7343 44.368V43.48L58.9023 43.624C58.8063 44.168 58.5983 44.64 58.2783 45.04C57.9743 45.424 57.5823 45.728 57.1023 45.952C56.6223 46.16 56.0703 46.264 55.4463 46.264Z" fill="#194650"/>
<path d="M57.1936 53.2392C58.2336 53.2392 59.2935 53.2593 60.3335 53.2392C61.0534 53.219 61.6334 52.8771 61.6934 52.0524C61.7334 51.1874 61.1334 50.8656 60.4135 50.8455C58.2136 50.8052 56.0336 50.8253 53.8337 50.8253C53.0938 50.8253 52.5138 51.107 52.5138 51.9719C52.4938 52.8167 53.0138 53.1788 53.7737 53.1989C54.9137 53.2593 56.0536 53.2392 57.1936 53.2392Z" fill="#DAB16D" stroke="#DAB16D" stroke-width="2"/>
<rect x="20" y="20" width="55" height="45.1" rx="8.25" stroke="#194650" stroke-width="4"/>
<path d="M34.184 111.316C33.736 111.316 33.368 111.212 33.08 111.004C32.808 110.796 32.632 110.516 32.552 110.164C32.488 109.812 32.56 109.42 32.768 108.988L38.912 95.5241C39.168 94.9801 39.472 94.5881 39.824 94.3481C40.176 94.0921 40.584 93.9641 41.048 93.9641C41.512 93.9641 41.92 94.0921 42.272 94.3481C42.624 94.5881 42.92 94.9801 43.16 95.5241L49.352 108.988C49.56 109.42 49.632 109.82 49.568 110.188C49.52 110.54 49.36 110.82 49.088 111.028C48.816 111.22 48.464 111.316 48.032 111.316C47.488 111.316 47.064 111.188 46.76 110.932C46.472 110.676 46.216 110.276 45.992 109.732L44.552 106.396L46.04 107.428H36.032L37.52 106.396L36.104 109.732C35.864 110.292 35.608 110.7 35.336 110.956C35.08 111.196 34.696 111.316 34.184 111.316ZM41 98.1401L37.928 105.46L37.28 104.524H44.792L44.144 105.46L41.048 98.1401H41ZM55.4463 111.364C54.5823 111.364 53.8063 111.196 53.1183 110.86C52.4303 110.524 51.8943 110.068 51.5103 109.492C51.1263 108.916 50.9343 108.268 50.9343 107.548C50.9343 106.684 51.1583 106.004 51.6063 105.508C52.0543 104.996 52.7823 104.636 53.7903 104.428C54.7983 104.204 56.1343 104.092 57.7983 104.092H59.0703V105.964H57.8223C57.0063 105.964 56.3423 106.012 55.8303 106.108C55.3343 106.188 54.9743 106.332 54.7503 106.54C54.5423 106.748 54.4383 107.036 54.4383 107.404C54.4383 107.852 54.5903 108.22 54.8943 108.508C55.2143 108.796 55.6703 108.94 56.2623 108.94C56.7263 108.94 57.1343 108.836 57.4863 108.628C57.8543 108.404 58.1423 108.108 58.3503 107.74C58.5583 107.356 58.6623 106.924 58.6623 106.444V103.684C58.6623 102.98 58.5023 102.484 58.1823 102.196C57.8623 101.892 57.3183 101.74 56.5503 101.74C56.1183 101.74 55.6463 101.796 55.1343 101.908C54.6383 102.004 54.0863 102.172 53.4783 102.412C53.1263 102.572 52.8143 102.612 52.5423 102.532C52.2703 102.436 52.0623 102.276 51.9183 102.052C51.7743 101.812 51.7023 101.556 51.7023 101.284C51.7023 100.996 51.7823 100.724 51.9423 100.468C52.1023 100.196 52.3663 99.9961 52.7343 99.8681C53.4863 99.5641 54.1903 99.3561 54.8463 99.2441C55.5183 99.1321 56.1343 99.0761 56.6943 99.0761C57.9263 99.0761 58.9343 99.2601 59.7183 99.6281C60.5183 99.9801 61.1183 100.532 61.5183 101.284C61.9183 102.02 62.1183 102.972 62.1183 104.14V109.468C62.1183 110.06 61.9743 110.516 61.6863 110.836C61.3983 111.156 60.9823 111.316 60.4383 111.316C59.8943 111.316 59.4703 111.156 59.1663 110.836C58.8783 110.516 58.7343 110.06 58.7343 109.468V108.58L58.9023 108.724C58.8063 109.268 58.5983 109.74 58.2783 110.14C57.9743 110.524 57.5823 110.828 57.1023 111.052C56.6223 111.26 56.0703 111.364 55.4463 111.364Z" fill="white"/>
<path d="M57.1936 118.339C58.2336 118.339 59.2935 118.359 60.3335 118.339C61.0534 118.319 61.6334 117.977 61.6934 117.152C61.7334 116.288 61.1334 115.966 60.4135 115.946C58.2136 115.905 56.0336 115.925 53.8337 115.925C53.0938 115.925 52.5138 116.207 52.5138 117.072C52.4938 117.917 53.0138 118.279 53.7737 118.299C54.9137 118.359 56.0536 118.339 57.1936 118.339Z" fill="#DAB16D" stroke="#DAB16D" stroke-width="2"/>
<rect x="20" y="85.1001" width="55" height="45.1" rx="8.25" stroke="white" stroke-width="4"/>
</svg>
