<svg width="109" height="185" viewBox="0 0 109 185" fill="none" xmlns="http://www.w3.org/2000/svg">
<path d="M44.3236 68.2271C50.1202 59.4013 56.6971 57.2786 68.1788 60.6302C68.2903 59.4013 68.4017 58.1724 68.4017 56.9435C68.5132 43.5372 68.4017 30.2426 68.6247 16.8362C68.7361 10.6917 70.2968 4.994 76.3163 1.86587C86.6833 -3.49666 97.6077 3.2065 98.0536 15.4956C98.388 23.9863 98.165 32.4769 98.2765 40.9676C98.4994 57.0552 98.8339 73.031 98.9453 89.1186C98.9453 93.5874 100.172 97.4976 102.29 101.519C116.335 127.55 104.296 165.87 77.654 178.382C60.933 186.314 43.5432 185.756 26.7108 177.712C19.1307 174.137 13.557 167.992 10.6587 160.284C7.53748 151.793 4.86212 142.967 3.41297 134.03C1.51793 122.746 0.960568 111.351 0.0687842 99.9554C-0.154162 96.939 0.180254 93.8108 0.849092 90.7944C2.74413 82.192 9.43251 77.2764 18.1274 77.4998C19.2421 77.4998 20.9142 77.0529 21.4716 76.1592C26.8223 67.5568 33.5107 64.9872 42.9859 67.7802C43.4318 68.0037 43.7662 68.1154 44.3236 68.2271ZM72.9721 119.171C72.8607 118.836 72.8606 118.501 72.7492 118.166C59.5954 122.97 52.3496 133.583 52.907 147.324C53.0185 149.224 53.2414 151.458 50.6775 151.123C49.7858 151.011 48.3366 148.888 48.2251 147.66C47.2219 136.041 51.6808 126.656 60.933 119.506C61.6019 119.059 62.1593 118.501 62.9396 117.83C60.2642 116.602 58.0348 115.596 56.2512 114.926C52.907 116.49 50.1202 118.501 46.9989 119.059C43.8777 119.618 40.5335 118.501 37.1893 118.166C30.7239 129.002 17.2356 126.545 12.9996 115.708C12.1079 113.362 10.6587 111.127 9.43251 108.893C8.54072 107.217 7.53747 105.541 9.76693 104.312C12.1079 103.084 12.8882 104.983 13.78 106.659C15.675 110.234 17.4586 114.032 19.7995 117.384C22.029 120.623 26.2649 121.294 29.3862 119.506C32.5074 117.719 33.8451 114.255 32.396 110.569C29.2747 102.525 26.042 94.5928 22.6978 86.6608C20.8028 82.3037 17.1242 81.0748 12.8882 83.0858C7.64895 85.5436 5.19654 90.0124 5.30801 95.4866C5.53096 114.702 6.86864 133.806 12.6652 152.24C15.3406 160.842 19.7995 168.774 28.16 173.02C44.9924 181.51 62.2707 181.846 78.6572 172.573C94.2635 163.747 100.84 148.553 103.293 131.46C105.076 119.171 101.732 107.999 94.5979 98.0561C90.4734 92.2467 85.5686 90.7944 78.7687 92.5819C73.1951 94.0343 67.6214 95.5983 62.0478 97.0507C58.815 97.8327 56.8085 99.7319 56.1397 102.86C55.4709 106.323 56.5856 109.452 59.5954 111.239C61.8248 112.58 64.6116 113.362 67.1755 113.585C69.5165 113.809 71.9689 112.915 74.4213 112.915C75.536 112.915 77.431 113.697 77.654 114.479C78.2113 116.378 77.9884 118.612 78.0999 120.623C76.3163 119.953 74.6442 119.618 72.9721 119.171ZM93.8176 89.0069C93.8176 83.6444 93.8176 77.7232 93.8176 71.6904C93.5946 53.4802 93.4831 35.2699 93.2602 17.0597C93.1487 9.79793 90.0275 5.5526 84.4538 5.21744C77.9884 4.77057 73.7524 9.12762 73.7524 16.8362C73.5295 32.1418 72.9721 47.3356 73.6409 62.6411C73.9754 69.9029 76.6507 77.0529 78.2113 84.3147C78.4343 85.3202 78.7687 86.2139 78.7687 86.2139C84.0079 87.1077 88.8013 88.0014 93.8176 89.0069ZM36.7434 71.5787C28.4944 71.467 24.2584 77.835 27.6026 85.0967C28.16 86.2139 28.6059 87.4428 29.1632 88.6717C32.0615 95.8218 34.8484 102.972 37.7467 110.122C39.3073 113.92 43.3203 115.708 47.2219 114.479C51.1234 113.25 52.1267 111.351 51.2349 106.659C51.1234 105.765 50.789 104.759 51.0119 103.977C52.3496 99.3968 50.4546 95.3749 49.1169 91.353C47.5563 86.7725 45.9957 82.0803 44.5465 77.4998C43.0974 73.031 41.3138 71.5787 36.7434 71.5787ZM74.0869 88.6717C72.9721 82.6389 71.9689 77.1646 70.7427 71.6904C69.7394 67.4451 65.6149 64.3169 60.8216 63.8701C55.9167 63.4232 51.0119 65.881 49.2284 69.7912C48.7825 70.9084 48.2251 72.3607 48.5595 73.4779C50.6775 80.4045 52.907 87.3311 55.1365 94.146C61.6019 92.135 67.6214 90.4592 74.0869 88.6717Z" fill="#194650"/>
<path d="M65.1316 165.579C63.8553 163.298 64.8445 161.423 67.1272 160.547C74.4157 157.802 79.8416 153.188 83.3321 146.162C84.0995 144.651 85.4939 143.464 87.2265 143.96C88.5885 144.346 88.9191 145.485 88.7881 146.87C88.2666 153.18 73.8358 166.04 67.3805 165.891C66.5696 165.897 65.7633 165.678 65.1316 165.579Z" fill="#DAB16D" stroke="#DAB16D" stroke-width="0.924859"/>
</svg>
