<svg width="28" height="24" viewBox="0 0 28 24" fill="none" xmlns="http://www.w3.org/2000/svg">
<path d="M4 4.27L5.28 3L22 19.72L20.73 21L17.65 17.92C16.5 18.3 15.28 18.5 14 18.5C9 18.5 4.73 15.39 3 11C3.69 9.24 4.79 7.69 6.19 6.46L4 4.27ZM14 8C14.7956 8 15.5587 8.31607 16.1213 8.87868C16.6839 9.44129 17 10.2044 17 11C17.0005 11.3406 16.943 11.6787 16.83 12L13 8.17C13.3213 8.05698 13.6594 7.99949 14 8ZM14 3.5C19 3.5 23.27 6.61 25 11C24.1834 13.0729 22.7966 14.8723 21 16.19L19.58 14.76C20.9629 13.8034 22.0783 12.5091 22.82 11C22.0117 9.34987 20.7565 7.95963 19.1974 6.98735C17.6382 6.01508 15.8375 5.49976 14 5.5C12.91 5.5 11.84 5.68 10.84 6L9.3 4.47C10.74 3.85 12.33 3.5 14 3.5ZM5.18 11C5.98835 12.6501 7.24345 14.0404 8.80264 15.0126C10.3618 15.9849 12.1625 16.5002 14 16.5C14.69 16.5 15.37 16.43 16 16.29L13.72 14C13.0242 13.9254 12.3748 13.6149 11.88 13.12C11.3851 12.6252 11.0746 11.9758 11 11.28L7.6 7.87C6.61 8.72 5.78 9.78 5.18 11Z" fill="#194650"/>
</svg>
