<svg width="35" height="35" viewBox="0 0 35 35" fill="none" xmlns="http://www.w3.org/2000/svg">
<path d="M34.9772 17.5936C35.1425 20.4083 34.3988 23.038 33.0766 25.5034C32.5189 26.5307 32.085 28.3386 30.391 27.4141C28.8623 26.5718 30.1638 25.3596 30.6389 24.394C33.717 18.1483 32.5808 11.4301 27.5815 6.64309C22.4995 1.77392 14.0502 1.36302 8.59637 5.69802C2.44016 10.6083 0.890775 18.6208 4.83654 25.1952C8.5344 31.3587 16.5705 33.9474 23.1399 31.1328C23.4085 31.0095 23.677 30.8862 23.9663 30.804C25.1438 30.4548 26.4866 28.4824 27.4782 30.2493C28.5938 32.1805 26.2387 32.5914 25.1025 33.1667C18.7603 36.495 10.6829 35.1801 5.41497 30.1261C0.0437789 24.9487 -1.5056 17.0594 1.55185 10.4028C4.69193 3.52024 11.6125 -0.588761 18.8843 0.0686794C28.2632 0.93157 34.9772 8.26614 34.9772 17.5936Z" fill="white"/>
<path fill-rule="evenodd" clip-rule="evenodd" d="M17.5 7.66669C16.916 7.66669 16.3857 7.84294 15.8091 8.13726C15.2532 8.42204 14.6098 8.84225 13.8073 9.36666L12.1024 10.4806C11.3436 10.9772 10.7341 11.3748 10.2656 11.7525C9.77978 12.1432 9.40697 12.5426 9.13726 13.0609C8.86837 13.5775 8.74795 14.128 8.68939 14.7783C8.6333 15.4077 8.6333 16.1787 8.6333 17.145V18.5454C8.6333 20.1985 8.6333 21.5035 8.7595 22.5236C8.88817 23.5698 9.16035 24.4146 9.77401 25.0823C10.3901 25.7534 11.1737 26.0538 12.1453 26.1953C13.0856 26.3334 14.2882 26.3334 15.8025 26.3334H19.1974C20.7118 26.3334 21.9143 26.3334 22.8546 26.1953C23.8254 26.0538 24.6098 25.7534 25.2268 25.0823C25.8396 24.4146 26.1118 23.5698 26.2413 22.5236C26.3666 21.5035 26.3666 20.1985 26.3666 18.5454V17.145C26.3666 16.1787 26.3666 15.4086 26.3105 14.7783C26.2528 14.1271 26.1316 13.5775 25.8627 13.0609C25.593 12.5426 25.2193 12.1441 24.7343 11.7525C24.2659 11.374 23.6571 10.9772 22.8975 10.4806L21.1926 9.36666C20.3901 8.84225 19.7467 8.42204 19.19 8.13726C18.6151 7.84207 18.0848 7.66669 17.5 7.66669ZM14.4317 10.4919C15.2689 9.94489 15.8586 9.56114 16.351 9.30849C16.8302 9.06278 17.17 8.96901 17.5 8.96901C17.8299 8.96901 18.1697 9.06278 18.6489 9.30849C19.1422 9.56027 19.7311 9.94489 20.5682 10.4919L22.2179 11.5693C23.0105 12.0876 23.5672 12.4514 23.9829 12.7866C24.3863 13.1121 24.618 13.3804 24.7772 13.686C24.9364 13.9925 25.0296 14.3511 25.0783 14.8998C25.1286 15.4624 25.1294 16.1717 25.1294 17.1771V18.4977C25.1294 20.2081 25.1278 21.4288 25.014 22.3552C24.9018 23.2651 24.6898 23.793 24.3376 24.1776C23.9871 24.5587 23.5103 24.7853 22.6847 24.906C21.8384 25.0293 20.7225 25.031 19.1496 25.031H15.8504C14.2766 25.031 13.1615 25.0293 12.3152 24.906C11.4896 24.7845 11.0129 24.5587 10.6631 24.1767C10.3101 23.793 10.0982 23.2651 9.98681 22.3552C9.87133 21.4288 9.87051 20.209 9.87051 18.4977V17.1771C9.87051 16.1717 9.87051 15.4624 9.92165 14.8998C9.97031 14.3511 10.0635 13.9925 10.2227 13.686C10.3819 13.3804 10.6137 13.1121 11.0178 12.7866C11.4327 12.4514 11.9894 12.0876 12.7821 11.5693L14.4317 10.4919Z" fill="#DAB16D" stroke="#DAB16D" stroke-width="1.06667"/>
<path d="M15.4334 20.5C15.1859 20.5 14.9485 20.5983 14.7735 20.7734C14.5984 20.9484 14.5001 21.1858 14.5001 21.4333C14.5001 21.6809 14.5984 21.9183 14.7735 22.0933C14.9485 22.2683 15.1859 22.3667 15.4334 22.3667H19.1668C19.4143 22.3667 19.6517 22.2683 19.8267 22.0933C20.0018 21.9183 20.1001 21.6809 20.1001 21.4333C20.1001 21.1858 20.0018 20.9484 19.8267 20.7734C19.6517 20.5983 19.4143 20.5 19.1668 20.5H15.4334Z" fill="#DAB16D" stroke="#DAB16D" stroke-width="0.933333"/>
</svg>
