<svg width="35" height="35" viewBox="0 0 35 35" fill="none" xmlns="http://www.w3.org/2000/svg">
<path d="M34.9772 17.5936C35.1425 20.4083 34.3988 23.038 33.0766 25.5034C32.5189 26.5307 32.085 28.3386 30.391 27.4141C28.8623 26.5718 30.1638 25.3596 30.6389 24.394C33.717 18.1483 32.5808 11.4301 27.5815 6.64309C22.4995 1.77392 14.0502 1.36302 8.59637 5.69802C2.44016 10.6083 0.890775 18.6208 4.83654 25.1952C8.5344 31.3587 16.5705 33.9474 23.1399 31.1328C23.4085 31.0095 23.677 30.8862 23.9663 30.804C25.1438 30.4548 26.4866 28.4824 27.4782 30.2493C28.5938 32.1806 26.2387 32.5915 25.1025 33.1667C18.7603 36.495 10.6829 35.1801 5.41497 30.1261C0.0437789 24.9487 -1.5056 17.0594 1.55185 10.4028C4.69193 3.52024 11.6125 -0.588761 18.8843 0.0686794C28.2632 0.93157 34.9772 8.26614 34.9772 17.5936Z" fill="#194650"/>
<path d="M18.1342 24.8662C17.9341 24.8662 17.7379 24.8303 17.5454 24.7587C17.353 24.687 17.1722 24.5716 17.0028 24.4124L15.6405 23.1229C13.9626 21.5786 12.481 20.0701 11.1956 18.5975C9.91026 17.1249 9.26758 15.5209 9.26758 13.7856C9.26758 12.3846 9.72938 11.2144 10.653 10.2751C11.5766 9.3358 12.7234 8.86615 14.0934 8.86615C14.8785 8.86615 15.6213 9.03729 16.3217 9.37958C17.0221 9.72187 17.6263 10.2114 18.1342 10.8482C18.673 10.2114 19.2849 9.72187 19.9699 9.37958C20.6549 9.03729 21.39 8.86615 22.175 8.86615C23.5451 8.86615 24.6919 9.3358 25.6155 10.2751C26.5391 11.2144 27.0009 12.3846 27.0009 13.7856C27.0009 15.5209 26.3582 17.1249 25.0729 18.5975C23.7875 20.0701 22.3059 21.5786 20.628 23.1229L19.2657 24.4124C19.0963 24.5716 18.9155 24.687 18.723 24.7587C18.5306 24.8303 18.3344 24.8662 18.1342 24.8662Z" stroke="white" stroke-width="2.61481"/>
</svg>
