<svg width="35" height="35" viewBox="0 0 35 35" fill="none" xmlns="http://www.w3.org/2000/svg">
<path d="M34.9772 17.5936C35.1425 20.4083 34.3988 23.038 33.0766 25.5034C32.5189 26.5307 32.085 28.3386 30.391 27.4141C28.8623 26.5718 30.1638 25.3596 30.6389 24.394C33.717 18.1483 32.5808 11.4301 27.5815 6.64309C22.4995 1.77392 14.0502 1.36302 8.59637 5.69802C2.44016 10.6083 0.890775 18.6208 4.83654 25.1952C8.5344 31.3587 16.5705 33.9474 23.1399 31.1328C23.4085 31.0095 23.677 30.8862 23.9663 30.804C25.1438 30.4548 26.4866 28.4824 27.4782 30.2493C28.5938 32.1806 26.2387 32.5915 25.1025 33.1667C18.7603 36.495 10.6829 35.1801 5.41497 30.1261C0.0437789 24.9487 -1.5056 17.0594 1.55185 10.4028C4.69193 3.52024 11.6125 -0.588761 18.8843 0.0686794C28.2632 0.93157 34.9772 8.26614 34.9772 17.5936Z" fill="#194650"/>
<path d="M23.8518 12.6115C23.8314 15.6054 21.2106 18.2531 18.2622 18.3142C15.1909 18.3753 12.4677 15.6461 12.4473 12.53C12.4473 9.55643 15.0271 6.92912 18.0369 6.86802C21.1696 6.78655 23.8723 9.47497 23.8518 12.6115ZM18.4669 9.61753C16.4194 9.61753 15.2319 10.6766 15.15 12.3671C15.0476 14.2408 16.2147 15.4424 18.2007 15.4424C20.064 15.4424 21.1287 14.3223 21.1696 12.5707C21.231 10.7784 20.1049 9.80083 18.4669 9.61753Z" fill="white"/>
<path d="M18.324 20.1243C19.4911 20.1243 20.6786 20.0224 21.8252 20.1446C23.9137 20.3687 25.5312 21.3666 26.2888 23.4033C26.7188 24.5642 27.2921 26.1121 25.7769 26.7027C24.2822 27.2934 24.3027 25.6437 23.9546 24.7271C23.5042 23.5459 22.6033 22.7108 21.3748 22.6294C19.2454 22.4868 17.075 22.4257 14.9456 22.6294C13.5124 22.7719 12.6115 23.8717 12.2224 25.3382C11.9972 26.1936 11.6082 27.1915 10.4616 26.7638C9.29452 26.3361 9.3969 25.216 9.7245 24.2587C10.5435 21.8554 12.161 20.3076 14.8023 20.1039C15.9694 20.0224 17.1364 20.0835 18.3035 20.0835C18.324 20.1039 18.324 20.1243 18.324 20.1243Z" fill="white"/>
</svg>
