<svg width="103" height="85" viewBox="0 0 103 85" fill="none" xmlns="http://www.w3.org/2000/svg">
<path d="M29.102 50.403C28.4376 50.403 27.8977 50.2507 27.4825 49.9462C27.0949 49.6417 26.8596 49.2403 26.7765 48.742C26.6935 48.2159 26.7904 47.6346 27.0672 46.9978L38.0302 22.7048C38.3901 21.902 38.8192 21.3344 39.3175 21.0022C39.8435 20.6423 40.4387 20.4624 41.1032 20.4624C41.7399 20.4624 42.3074 20.6423 42.8058 21.0022C43.3318 21.3344 43.7747 21.902 44.1346 22.7048L55.1391 46.9978C55.4437 47.6346 55.5544 48.2159 55.4714 48.742C55.3883 49.268 55.153 49.6832 54.7654 49.9877C54.3778 50.2646 53.8657 50.403 53.2289 50.403C52.4538 50.403 51.8447 50.2231 51.4018 49.8632C50.9865 49.4756 50.6128 48.8942 50.2805 48.1191L47.5813 41.8485L49.8237 43.302H32.2995L34.542 41.8485L31.8843 48.1191C31.5244 48.9219 31.1506 49.5033 30.7631 49.8632C30.3755 50.2231 29.8218 50.403 29.102 50.403ZM41.0201 26.5668L35.2064 40.3951L34.1267 39.0663H47.9966L46.9584 40.3951L41.1032 26.5668H41.0201Z" fill="white"/>
<path d="M65.9004 50.4861C64.4331 50.4861 63.1181 50.2092 61.9553 49.6555C60.8203 49.0742 59.9205 48.299 59.2561 47.33C58.6194 46.3611 58.301 45.2676 58.301 44.0495C58.301 42.5545 58.6886 41.3779 59.4637 40.5197C60.2389 39.6338 61.4985 38.9971 63.2427 38.6095C64.9868 38.2219 67.3261 38.0281 70.2606 38.0281H72.337V41.018H70.3022C68.5857 41.018 67.2154 41.1011 66.191 41.2672C65.1667 41.4333 64.4331 41.724 63.9901 42.1392C63.5749 42.5268 63.3672 43.0805 63.3672 43.8003C63.3672 44.7139 63.6856 45.4614 64.3224 46.0427C64.9591 46.6241 65.845 46.9148 66.98 46.9148C67.8936 46.9148 68.6965 46.7072 69.3886 46.2919C70.1084 45.8489 70.6759 45.2537 71.0912 44.5062C71.5064 43.7588 71.7141 42.9005 71.7141 41.9316V37.156C71.7141 35.7718 71.4095 34.7752 70.8005 34.1661C70.1914 33.5571 69.1671 33.2525 67.7275 33.2525C66.9247 33.2525 66.0526 33.3494 65.1114 33.5432C64.1978 33.737 63.2288 34.0692 62.2045 34.5399C61.6785 34.789 61.2079 34.8582 60.7926 34.7475C60.405 34.6368 60.1005 34.4153 59.879 34.0831C59.6575 33.7232 59.5468 33.3356 59.5468 32.9203C59.5468 32.5051 59.6575 32.1036 59.879 31.7161C60.1005 31.3008 60.4742 30.9963 61.0002 30.8025C62.2737 30.2765 63.4918 29.9027 64.6546 29.6813C65.845 29.4598 66.9247 29.3491 67.8936 29.3491C69.8869 29.3491 71.5203 29.6536 72.7938 30.2626C74.0949 30.8717 75.0639 31.7991 75.7006 33.0449C76.3374 34.263 76.6557 35.841 76.6557 37.7789V47.7453C76.6557 48.6035 76.4481 49.268 76.0328 49.7386C75.6176 50.1815 75.0224 50.403 74.2472 50.403C73.472 50.403 72.863 50.1815 72.42 49.7386C72.0048 49.268 71.7971 48.6035 71.7971 47.7453V45.752H72.1293C71.9356 46.721 71.548 47.5654 70.9666 48.2852C70.4129 48.9773 69.707 49.5171 68.8487 49.9047C67.9905 50.2923 67.0077 50.4861 65.9004 50.4861Z" fill="#DAB16D"/>
<path d="M67.7843 59.4101C69.6751 59.4101 71.6023 59.4467 73.4932 59.4101C74.8022 59.3735 75.8567 58.7518 75.9658 57.2523C76.0385 55.6797 74.9477 55.0945 73.6386 55.0579C69.6388 54.9848 65.6753 55.0214 61.6755 55.0214C60.3301 55.0214 59.2756 55.5334 59.2756 57.106C59.2392 58.6421 60.1846 59.3004 61.5664 59.337C63.639 59.4467 65.7117 59.4101 67.7843 59.4101Z" fill="#DAB16D"/>
<rect x="1.32861" y="1.32861" width="100" height="82" rx="15" stroke="white" stroke-width="2.65714"/>
</svg>
