<svg width="100" height="82" viewBox="0 0 100 82" fill="none" xmlns="http://www.w3.org/2000/svg">
<path d="M77.0711 20.9547C80.5137 20.9547 83.9162 20.996 87.3588 20.9547C88.92 20.9134 90.5612 20.6657 90.6813 18.5598C90.8014 16.4127 89.1601 16.041 87.5589 16.041C80.7138 15.9998 73.8287 15.9998 66.9835 15.9998C65.3824 15.9998 63.6611 16.3714 63.621 18.3534C63.581 20.7483 65.5825 20.9134 67.3438 20.9134C70.5862 20.996 73.8287 20.9547 77.0711 20.9547Z" fill="#DAB16D"/>
<path d="M81.677 32.8398C83.7585 32.8398 85.8801 32.8811 87.9617 32.8398C89.4028 32.7985 90.5636 32.0966 90.6837 30.4036C90.7638 28.6281 89.5629 27.9674 88.1218 27.9261C83.7185 27.8435 79.3552 27.8848 74.9519 27.8848C73.4708 27.8848 72.31 28.4629 72.31 30.2384C72.2699 31.9727 73.3107 32.7159 74.8319 32.7572C77.1136 32.8811 79.3953 32.8398 81.677 32.8398Z" fill="#DAB16D"/>
<path d="M84.4641 51.5703C84.4641 57.5807 84.4641 62.9485 84.4641 68.3163C84.0955 68.4675 83.7638 68.6187 83.3952 68.7699C82.0314 67.5225 80.6308 66.3506 79.3407 65.0276C75.1019 60.6426 71.6003 54.5188 66.4769 52.3264C61.2061 50.0583 54.3872 51.6459 48.2317 51.5703C45.7622 51.5325 43.2926 51.6459 40.8231 51.5325C35.626 51.3435 31.9032 47.8658 31.7926 42.5736C31.6083 31.4979 31.6083 20.3843 31.7558 9.30856C31.8295 3.86518 35.626 0.122854 41.0074 0.0850528C57.5939 -0.0283509 74.1436 -0.0283509 90.7301 0.0850528C96.3327 0.122854 99.908 3.90298 99.9448 9.68657C100.019 20.2331 100.019 30.7419 99.9448 41.2884C99.908 48.206 96.5907 51.5325 89.8086 51.6081C88.3711 51.6081 86.8599 51.5703 84.4641 51.5703ZM81.7734 62.3437C81.7734 60 81.7734 58.1856 81.7734 56.3711C81.7734 48.8865 81.7734 48.8865 89.1083 48.6974C94.8952 48.584 97.1436 46.3916 97.1804 40.5324C97.2541 30.7041 97.2541 20.8757 97.1804 11.0474C97.1436 5.37723 94.932 3.18475 89.4032 3.14695C73.6644 3.10915 57.8888 3.10915 42.15 3.14695C36.7686 3.14695 34.8151 5.26382 34.7782 10.8584C34.7413 20.6867 34.7413 30.515 34.7782 40.3434C34.7782 46.505 36.8423 48.6218 42.9609 48.6596C50.2221 48.6974 57.4833 48.5084 64.7445 48.773C66.6612 48.8486 68.8359 49.9449 70.3471 51.2679C74.2173 54.6322 77.7189 58.3746 81.7734 62.3437Z" fill="white"/>
<path d="M15.8309 75.9517C19.2957 72.474 21.9495 69.4499 24.9719 66.9173C26.52 65.632 28.6947 64.6114 30.6482 64.498C36.1034 64.1578 41.5953 64.4224 47.0873 64.3846C52.1739 64.3468 53.5376 63.1749 55.012 58.2986C55.3069 57.3535 56.2283 56.5975 56.8918 55.7659C57.2235 56.8621 57.887 57.9962 57.8133 59.0168C57.4078 63.8176 53.6114 67.3709 48.6723 67.4843C42.9223 67.6355 37.1723 67.3709 31.4223 67.6355C29.7268 67.7111 27.7732 68.5805 26.52 69.7523C22.355 73.5325 18.4111 77.615 13.988 81.9999C11.4447 77.426 13.8405 72.3606 12.3293 67.5221C11.1498 67.5221 9.97035 67.5977 8.754 67.5221C3.77804 67.1063 0.276442 63.7041 0.165865 58.5632C-0.0552884 49.8689 -0.0552884 41.1368 0.165865 32.4425C0.202724 27.1503 3.74118 23.7482 8.754 23.6348C14.0986 23.4836 19.4431 23.5214 24.7877 23.6726C25.7091 23.7104 26.5937 24.6933 27.4784 25.2225C26.5937 25.6383 25.7091 26.3565 24.8245 26.3943C20.1803 26.5077 15.4992 26.3943 10.855 26.4699C5.06811 26.5077 2.85657 28.7758 2.81971 34.5972C2.78285 42.1952 2.74599 49.7555 2.85657 57.3535C2.93029 61.8141 5.17868 64.0822 9.38061 64.3468C15.8309 64.7626 15.8309 64.7626 15.8678 71.3022C15.8309 72.5496 15.8309 73.7971 15.8309 75.9517Z" fill="white"/>
</svg>
