<svg width="413" height="108" viewBox="0 0 413 108" fill="none" xmlns="http://www.w3.org/2000/svg">
<g filter="url(#filter0_d_2071_12519)">
<rect width="414" height="96" transform="translate(0 5.75)" fill="#F8F8F8"/>
<path d="M8.03882 36.0947C8.03882 23.3922 18.3363 13.0947 31.0388 13.0947H113.846C126.549 13.0947 136.846 23.3922 136.846 36.0947V94.4054H31.0388C18.3363 94.4054 8.03882 84.1079 8.03882 71.4054V36.0947Z" fill="#194650"/>
<g clip-path="url(#clip0_2071_12519)">
<path d="M86.2191 44.2106C86.2191 42.0372 86.2191 39.8871 86.2423 37.7137C86.2423 37.0126 86.0106 36.5452 85.4312 36.1479C84.5275 35.5169 83.6237 34.8859 82.7199 34.255C82.2564 33.9278 81.8161 33.5305 81.3295 33.2033C80.194 32.4555 79.0584 31.731 78.0156 30.8429C77.8766 30.7261 77.7144 30.6326 77.5521 30.5391C76.2776 29.6511 74.9335 28.8097 73.7053 27.8516C72.9637 27.2907 72.2222 27.2907 71.4806 27.8516C71.2257 28.0385 70.994 28.2956 70.6927 28.4358C69.673 28.9266 68.8388 29.7679 67.8191 30.2353C66.4982 31.3571 65.0615 32.2919 63.6479 33.2734C62.327 34.2082 61.0524 35.1898 59.7315 36.1246C59.3144 36.405 59.0363 36.7322 58.8277 37.1996C58.6655 37.5969 58.6423 37.9942 58.6423 38.3914C58.6423 41.4062 58.6423 44.4443 58.6423 47.459C58.6423 48.7677 58.5496 50.0531 58.9668 51.3384C59.0826 51.689 59.1985 52.0162 59.3607 52.3667C59.8937 53.4184 60.7511 54.0494 61.7013 54.6336C62.0952 54.8673 62.5123 54.9842 62.9526 55.0075C64.8761 55.0309 66.7995 55.0543 68.7229 55.0309C69.534 55.0309 69.9975 54.5168 70.067 53.6988C70.0902 53.4417 70.067 53.1847 70.067 52.9042C70.067 51.5488 70.067 50.2167 70.067 48.8612C70.067 48.6041 70.067 48.3471 70.067 48.0666C70.1134 47.5291 70.2292 47.4123 70.739 47.4123C71.8514 47.4123 72.9637 47.3889 74.0761 47.4123C74.7018 47.4123 74.9567 47.6693 74.9799 48.277C75.003 48.6041 74.9799 48.9547 74.9799 49.2819C74.9799 50.6607 74.9799 52.0395 74.9799 53.4184C74.9799 53.7222 74.9567 54.026 75.0957 54.3064C75.5128 55.1244 76.5788 55.2179 77.2277 54.5401C77.5058 54.2363 77.6217 53.9325 77.6217 53.5352C77.6217 52.0863 77.6217 50.614 77.6217 49.165C77.6217 48.277 77.5985 47.3655 77.6217 46.4775C77.6448 45.9633 77.4131 45.5894 77.0423 45.3557C76.602 45.0519 76.1154 44.8182 75.5128 44.8416C73.5199 44.8883 71.5038 44.8416 69.5108 44.8416C69.3254 44.8416 69.1401 44.8182 68.9547 44.8649C67.935 45.0986 67.4947 45.4726 67.5642 46.384C67.5874 46.7579 67.5642 47.1318 67.5642 47.5058C67.5642 48.9313 67.5642 50.3569 67.5411 51.7591C67.5411 52.2499 67.402 52.4135 66.9849 52.4135C65.7567 52.4368 64.5285 52.4602 63.3234 52.3901C62.3733 52.3434 61.5854 51.502 61.3768 50.5439C61.261 50.0297 61.2146 49.5156 61.2146 48.9781C61.2146 45.7997 61.2146 42.6214 61.2146 39.4431C61.2146 39.186 61.1914 38.9056 61.2146 38.6485C61.261 38.2045 61.4232 37.8539 61.8635 37.5735C62.7209 36.9892 63.6015 36.4751 64.4126 35.8675C66.1043 34.6289 67.796 33.437 69.4877 32.1984C70.3451 31.5674 71.2025 30.9832 72.06 30.3755C72.1758 30.2821 72.2685 30.1418 72.4307 30.2353C72.8247 30.4924 73.3577 30.4924 73.6821 30.8897C73.9139 31.1701 74.2615 31.3337 74.5627 31.544C75.8373 32.4555 77.1582 33.2968 78.4096 34.255C79.9622 35.4235 81.6076 36.4517 83.1834 37.5969C83.4615 37.8072 83.5773 38.0175 83.6005 38.3213C83.6237 38.6251 83.6237 38.929 83.6237 39.2094C83.6237 42.5981 83.6237 46.0101 83.6237 49.3987C83.6237 49.7025 83.6005 50.0064 83.6005 50.2868C83.6005 50.5439 83.531 50.8009 83.3919 51.0346C83.0212 51.7124 82.5113 52.2031 81.7234 52.3434C81.399 52.3901 81.0746 52.4602 80.7733 52.6004C80.3098 52.8341 80.0086 53.1146 80.0317 53.6988C80.0781 54.47 80.3793 54.8673 81.1904 54.8907C82.0247 54.9374 82.8126 54.8439 83.531 54.3999C84.0176 54.0961 84.5043 53.7456 84.9214 53.3483C85.1532 53.1146 85.4312 52.8809 85.5471 52.5771C85.8252 51.7825 86.196 51.0346 86.1728 50.1466C86.1728 48.2536 86.2191 46.2204 86.2191 44.2106ZM72.5234 42.6448C73.1259 42.6448 73.7053 42.6448 74.3078 42.6448C75.003 42.6448 75.7214 42.6448 76.4166 42.5981C76.9265 42.5747 77.5753 41.9671 77.6448 41.4529C77.7144 40.892 77.6912 40.4013 77.0655 40.0274C76.7179 39.817 76.3935 39.7469 76.0227 39.7469C73.7285 39.7469 71.4343 39.7469 69.1401 39.7469C69.001 39.7469 68.8388 39.7469 68.6998 39.7703C67.9814 39.8638 67.5411 40.3545 67.5179 41.1024C67.5179 41.1725 67.5179 41.2426 67.5179 41.3361C67.5411 42.0605 67.9118 42.5046 68.6302 42.5981C68.8851 42.6214 69.1401 42.6214 69.4181 42.6214C70.461 42.6448 71.5038 42.6448 72.5234 42.6448Z" fill="white"/>
<path d="M86.218 44.2066C86.218 46.2164 86.1716 48.2496 86.2412 50.2594C86.2643 51.1475 85.8935 51.9187 85.6155 52.6899C85.5228 52.9937 85.2447 53.2274 84.9898 53.4611C84.5726 53.8818 84.086 54.2089 83.5993 54.5128C82.881 54.9802 82.0699 55.0503 81.2588 55.0035C80.4709 54.9568 80.1464 54.5829 80.1001 53.8117C80.0769 53.2274 80.355 52.9236 80.8417 52.7133C81.1429 52.573 81.4674 52.5029 81.7918 52.4562C82.5797 52.316 83.0895 51.8252 83.4603 51.1475C83.5993 50.9138 83.6689 50.6801 83.6689 50.3996C83.6689 50.0958 83.692 49.792 83.692 49.5116C83.692 46.1229 83.692 42.7109 83.692 39.3222C83.692 39.0184 83.692 38.7146 83.6689 38.4342C83.6457 38.1304 83.5298 37.92 83.2517 37.7097C81.6991 36.5646 80.0306 35.5363 78.4779 34.3678C77.2265 33.433 75.9056 32.5683 74.6311 31.6569C74.3298 31.4465 73.9822 31.2829 73.7505 31.0025C73.4029 30.5818 72.893 30.5818 72.4991 30.3481C72.3369 30.2547 72.2442 30.3949 72.1283 30.4884C71.2709 31.096 70.3903 31.6802 69.556 32.3112C67.8643 33.5031 66.1726 34.7183 64.481 35.957C63.6699 36.5646 62.7661 37.0787 61.9318 37.663C61.4915 37.9434 61.3525 38.294 61.283 38.738C61.2598 38.9951 61.283 39.2521 61.283 39.5326C61.283 42.7109 61.283 45.8892 61.283 49.0675C61.283 49.605 61.3293 50.1192 61.4452 50.6333C61.6537 51.5915 62.4417 52.4328 63.3918 52.4796C64.62 52.5497 65.825 52.5263 67.0532 52.5029C67.4935 52.5029 67.6094 52.316 67.6094 51.8486C67.6326 50.423 67.6094 49.0208 67.6326 47.5952C67.6326 47.2213 67.6558 46.8474 67.6326 46.4735C67.5631 45.562 68.0034 45.1647 69.023 44.9544C69.2084 44.9077 69.3938 44.931 69.5792 44.931C71.5721 44.931 73.5883 44.9544 75.5812 44.931C76.1837 44.931 76.6704 45.1414 77.1107 45.4452C77.4815 45.6789 77.7132 46.0528 77.69 46.5669C77.6437 47.455 77.69 48.3664 77.69 49.2545C77.69 50.7034 77.69 52.1757 77.69 53.6247C77.69 54.022 77.5742 54.3258 77.2961 54.6296C76.6704 55.3307 75.5812 55.2139 75.1641 54.3959C75.025 54.1155 75.0482 53.8117 75.0482 53.5078C75.0482 52.129 75.0482 50.7502 75.0482 49.3713C75.0482 49.0442 75.0482 48.6936 75.0482 48.3664C75.0019 47.7588 74.7701 47.5017 74.1444 47.5017C73.0321 47.4784 71.9197 47.4784 70.8074 47.5017C70.2976 47.5017 70.1817 47.642 70.1354 48.1561C70.1122 48.4132 70.1354 48.6702 70.1354 48.9507C70.1354 50.3061 70.1354 51.6382 70.1354 52.9937C70.1354 53.2508 70.1354 53.5078 70.1354 53.7883C70.0658 54.6062 69.6024 55.1204 68.7913 55.1204C66.8679 55.1437 64.9444 55.1204 63.021 55.097C62.5807 55.097 62.1636 54.9802 61.7696 54.7231C60.8195 54.1388 59.9389 53.5078 59.4291 52.4562C59.2668 52.129 59.151 51.7785 59.0351 51.4279C58.5716 50.0724 58.6412 48.7637 58.6412 47.4784C58.6412 44.4636 58.6412 41.4255 58.6412 38.4108C58.6412 38.0135 58.6412 37.6162 58.8265 37.2189C59.0351 36.7515 59.3132 36.4244 59.7303 36.1439C61.0512 35.2091 62.3026 34.2276 63.6235 33.3161C65.0371 32.3346 66.4739 31.3998 67.7948 30.278C68.8376 29.8106 69.6487 28.9693 70.6684 28.4785C70.9464 28.3383 71.1782 28.0813 71.4563 27.8943C72.1978 27.3334 72.9394 27.3334 73.681 27.8943C74.9092 28.8525 76.2532 29.6938 77.551 30.5818C77.7132 30.6753 77.8754 30.7688 78.0145 30.8857C79.0341 31.7737 80.1928 32.4982 81.3283 33.246C81.815 33.5732 82.2553 33.9471 82.7187 34.2977C83.6225 34.9287 84.5263 35.5597 85.4301 36.1907C86.0094 36.5879 86.2412 37.0787 86.2412 37.7564C86.218 39.8597 86.2412 42.0332 86.218 44.2066Z" fill="white"/>
<path d="M72.5258 42.6442C71.483 42.6442 70.4633 42.6442 69.4205 42.6442C69.1656 42.6442 68.9107 42.6442 68.6326 42.6208C67.9142 42.5273 67.5203 42.0833 67.5203 41.3588C67.5203 41.2887 67.5203 41.2186 67.5203 41.1251C67.5434 40.4006 67.9837 39.8865 68.7021 39.793C68.8412 39.7697 69.0034 39.7697 69.1424 39.7697C71.4366 39.7697 73.7308 39.7697 76.0251 39.7697C76.3958 39.7697 76.6971 39.8398 77.0679 40.0501C77.6936 40.4006 77.7167 40.8914 77.6472 41.4757C77.5777 41.9664 76.9288 42.5741 76.419 42.6208C75.7238 42.6675 75.0054 42.6442 74.3102 42.6675C73.7308 42.6442 73.1283 42.6442 72.5258 42.6442Z" fill="#DAB16D"/>
</g>
<path d="M55.0765 64.6402V74.3278H52.7167V64.6402H55.0765ZM61.981 66.5446C62.8826 66.5446 63.6002 66.839 64.1338 67.4278C64.6766 68.0074 64.948 68.8078 64.948 69.829V74.3278H62.602V70.1464C62.602 69.6312 62.4686 69.231 62.2018 68.9458C61.935 68.6606 61.5762 68.518 61.1254 68.518C60.6746 68.518 60.3158 68.6606 60.049 68.9458C59.7822 69.231 59.6488 69.6312 59.6488 70.1464V74.3278H57.289V66.6274H59.6488V67.6486C59.888 67.3082 60.21 67.0414 60.6148 66.8482C61.0196 66.6458 61.475 66.5446 61.981 66.5446ZM68.2771 65.827C67.8631 65.827 67.5227 65.7074 67.2559 65.4682C66.9983 65.2198 66.8695 64.9162 66.8695 64.5574C66.8695 64.1894 66.9983 63.8858 67.2559 63.6466C67.5227 63.3982 67.8631 63.274 68.2771 63.274C68.6819 63.274 69.0131 63.3982 69.2707 63.6466C69.5375 63.8858 69.6709 64.1894 69.6709 64.5574C69.6709 64.9162 69.5375 65.2198 69.2707 65.4682C69.0131 65.7074 68.6819 65.827 68.2771 65.827ZM69.4501 66.6274V74.3278H67.0903V66.6274H69.4501ZM71.1934 70.4776C71.1934 69.6772 71.3544 68.978 71.6764 68.38C72.0076 67.782 72.463 67.322 73.0426 67C73.6314 66.678 74.303 66.517 75.0574 66.517C76.0234 66.517 76.8284 66.77 77.4724 67.276C78.1256 67.782 78.5534 68.495 78.7558 69.415H76.2442C76.0326 68.8262 75.6232 68.5318 75.016 68.5318C74.5836 68.5318 74.2386 68.702 73.981 69.0424C73.7234 69.3736 73.5946 69.852 73.5946 70.4776C73.5946 71.1032 73.7234 71.5862 73.981 71.9266C74.2386 72.2578 74.5836 72.4234 75.016 72.4234C75.6232 72.4234 76.0326 72.129 76.2442 71.5402H78.7558C78.5534 72.4418 78.1256 73.1502 77.4724 73.6654C76.8192 74.1806 76.0142 74.4382 75.0574 74.4382C74.303 74.4382 73.6314 74.2772 73.0426 73.9552C72.463 73.6332 72.0076 73.1732 71.6764 72.5752C71.3544 71.9772 71.1934 71.278 71.1934 70.4776ZM81.7073 65.827C81.2933 65.827 80.9529 65.7074 80.6861 65.4682C80.4285 65.2198 80.2997 64.9162 80.2997 64.5574C80.2997 64.1894 80.4285 63.8858 80.6861 63.6466C80.9529 63.3982 81.2933 63.274 81.7073 63.274C82.1121 63.274 82.4433 63.3982 82.7009 63.6466C82.9677 63.8858 83.1011 64.1894 83.1011 64.5574C83.1011 64.9162 82.9677 65.2198 82.7009 65.4682C82.4433 65.7074 82.1121 65.827 81.7073 65.827ZM82.8803 66.6274V74.3278H80.5205V66.6274H82.8803ZM88.5981 74.4382C87.8437 74.4382 87.1629 74.2772 86.5557 73.9552C85.9577 73.6332 85.4839 73.1732 85.1343 72.5752C84.7939 71.9772 84.6237 71.278 84.6237 70.4776C84.6237 69.6864 84.7985 68.9918 85.1481 68.3938C85.4977 67.7866 85.9761 67.322 86.5833 67C87.1905 66.678 87.8713 66.517 88.6257 66.517C89.3801 66.517 90.0609 66.678 90.6681 67C91.2753 67.322 91.7537 67.7866 92.1033 68.3938C92.4529 68.9918 92.6277 69.6864 92.6277 70.4776C92.6277 71.2688 92.4483 71.968 92.0895 72.5752C91.7399 73.1732 91.2569 73.6332 90.6405 73.9552C90.0333 74.2772 89.3525 74.4382 88.5981 74.4382ZM88.5981 72.3958C89.0489 72.3958 89.4307 72.2302 89.7435 71.899C90.0655 71.5678 90.2265 71.094 90.2265 70.4776C90.2265 69.8612 90.0701 69.3874 89.7573 69.0562C89.4537 68.725 89.0765 68.5594 88.6257 68.5594C88.1657 68.5594 87.7839 68.725 87.4803 69.0562C87.1767 69.3782 87.0249 69.852 87.0249 70.4776C87.0249 71.094 87.1721 71.5678 87.4665 71.899C87.7701 72.2302 88.1473 72.3958 88.5981 72.3958Z" fill="white"/>
<path d="M142.596 36.6473C142.596 23.9448 152.894 13.6473 165.596 13.6473H248.404C261.106 13.6473 271.404 23.9448 271.404 36.6473V93.8527H142.596V36.6473Z" fill="#DAB16D"/>
<g clip-path="url(#clip1_2071_12519)">
<path d="M206.583 27.5301C209.6 27.5301 212.617 27.4917 215.615 27.5301C219.071 27.5686 221.248 29.47 221.362 32.8118C221.515 37.4021 221.477 41.9923 221.362 46.5826C221.286 49.3291 219.262 51.5762 216.99 51.8259C216.149 51.9219 215.233 51.9795 214.965 50.9424C214.717 50.0013 215.462 49.694 216.226 49.5019C218.345 49.0218 218.785 47.5429 218.746 45.5839C218.651 41.5506 218.651 37.4981 218.746 33.4648C218.804 31.0257 217.753 29.8733 215.366 29.8733C209.428 29.8733 203.489 29.8541 197.551 29.8925C195.221 29.9117 194.056 31.1409 194.056 33.5224C194.075 37.6518 194.075 41.7811 194.056 45.9104C194.037 48.3111 195.335 49.4635 197.589 49.5211C200.606 49.598 203.623 49.6172 206.621 49.5403C211.032 49.4251 213.037 52.9014 215.653 55.475C216.111 55.9168 215.958 56.4929 215.519 56.9347C215.061 57.3956 214.545 57.434 214.049 57.0691C213.667 56.8194 213.247 56.5506 212.999 56.1856C210.211 52.114 206.239 51.3265 201.694 51.8451C200.167 52.0179 198.601 51.9027 197.035 51.8643C194.018 51.7875 191.784 49.7324 191.726 46.7555C191.612 42.0692 191.612 37.4021 191.707 32.7158C191.784 29.7004 193.941 27.6262 196.978 27.5493C200.186 27.4725 203.375 27.5301 206.583 27.5301Z" fill="#194650"/>
<path d="M206.565 38.1139C204.923 38.1139 203.3 38.1331 201.658 38.1139C200.913 38.0947 200.13 37.9795 200.073 37C200.016 36.0013 200.799 35.8284 201.562 35.8284C204.828 35.8092 208.112 35.8092 211.377 35.8092C212.141 35.8092 212.962 35.9821 212.981 36.904C213 38.0179 212.046 38.0947 211.206 38.0947C209.659 38.1331 208.112 38.1139 206.565 38.1139Z" fill="white"/>
<path d="M204.368 43.6428C203.375 43.6428 202.363 43.662 201.37 43.6428C200.683 43.6236 200.129 43.2971 200.072 42.5096C200.034 41.6838 200.606 41.3765 201.294 41.3573C203.394 41.3188 205.476 41.3381 207.576 41.3381C208.283 41.3381 208.837 41.6069 208.837 42.4328C208.856 43.2395 208.359 43.5852 207.634 43.6044C206.545 43.662 205.457 43.6428 204.368 43.6428Z" fill="white"/>
</g>
<path d="M185.18 73.775L183.165 70.118H182.599V73.775H180.239V64.0874H184.2C184.964 64.0874 185.612 64.2208 186.146 64.4876C186.689 64.7544 187.093 65.1224 187.36 65.5916C187.627 66.0516 187.76 66.5668 187.76 67.1372C187.76 67.7812 187.576 68.3562 187.208 68.8622C186.85 69.3682 186.316 69.727 185.608 69.9386L187.843 73.775H185.18ZM182.599 68.4482H184.062C184.494 68.4482 184.816 68.3424 185.028 68.1308C185.249 67.9192 185.359 67.6202 185.359 67.2338C185.359 66.8658 185.249 66.576 185.028 66.3644C184.816 66.1528 184.494 66.047 184.062 66.047H182.599V68.4482ZM197.003 69.8006C197.003 70.0214 196.989 70.2514 196.962 70.4906H191.621C191.658 70.969 191.81 71.337 192.076 71.5946C192.352 71.843 192.688 71.9672 193.084 71.9672C193.673 71.9672 194.082 71.7188 194.312 71.222H196.824C196.695 71.728 196.46 72.1834 196.12 72.5882C195.789 72.993 195.37 73.3104 194.864 73.5404C194.358 73.7704 193.792 73.8854 193.167 73.8854C192.412 73.8854 191.741 73.7244 191.152 73.4024C190.563 73.0804 190.103 72.6204 189.772 72.0224C189.441 71.4244 189.275 70.7252 189.275 69.9248C189.275 69.1244 189.436 68.4252 189.758 67.8272C190.089 67.2292 190.549 66.7692 191.138 66.4472C191.727 66.1252 192.403 65.9642 193.167 65.9642C193.912 65.9642 194.574 66.1206 195.154 66.4334C195.733 66.7462 196.184 67.1924 196.506 67.772C196.837 68.3516 197.003 69.0278 197.003 69.8006ZM194.588 69.1796C194.588 68.7748 194.45 68.4528 194.174 68.2136C193.898 67.9744 193.553 67.8548 193.139 67.8548C192.743 67.8548 192.408 67.9698 192.132 68.1998C191.865 68.4298 191.699 68.7564 191.635 69.1796H194.588ZM201.11 67.1648C201.34 66.806 201.658 66.5162 202.062 66.2954C202.467 66.0746 202.941 65.9642 203.484 65.9642C204.119 65.9642 204.694 66.1252 205.209 66.4472C205.724 66.7692 206.129 67.2292 206.423 67.8272C206.727 68.4252 206.879 69.1198 206.879 69.911C206.879 70.7022 206.727 71.4014 206.423 72.0086C206.129 72.6066 205.724 73.0712 205.209 73.4024C204.694 73.7244 204.119 73.8854 203.484 73.8854C202.95 73.8854 202.476 73.775 202.062 73.5542C201.658 73.3334 201.34 73.0482 201.11 72.6986V77.4458H198.75V66.0746H201.11V67.1648ZM204.477 69.911C204.477 69.3222 204.312 68.8622 203.981 68.531C203.659 68.1906 203.258 68.0204 202.78 68.0204C202.311 68.0204 201.911 68.1906 201.579 68.531C201.257 68.8714 201.096 69.336 201.096 69.9248C201.096 70.5136 201.257 70.9782 201.579 71.3186C201.911 71.659 202.311 71.8292 202.78 71.8292C203.249 71.8292 203.649 71.659 203.981 71.3186C204.312 70.969 204.477 70.4998 204.477 69.911ZM208.15 69.911C208.15 69.1198 208.297 68.4252 208.591 67.8272C208.895 67.2292 209.304 66.7692 209.82 66.4472C210.335 66.1252 210.91 65.9642 211.545 65.9642C212.087 65.9642 212.561 66.0746 212.966 66.2954C213.38 66.5162 213.697 66.806 213.918 67.1648V66.0746H216.278V73.775H213.918V72.6848C213.688 73.0436 213.366 73.3334 212.952 73.5542C212.547 73.775 212.074 73.8854 211.531 73.8854C210.905 73.8854 210.335 73.7244 209.82 73.4024C209.304 73.0712 208.895 72.6066 208.591 72.0086C208.297 71.4014 208.15 70.7022 208.15 69.911ZM213.918 69.9248C213.918 69.336 213.753 68.8714 213.421 68.531C213.099 68.1906 212.704 68.0204 212.235 68.0204C211.765 68.0204 211.365 68.1906 211.034 68.531C210.712 68.8622 210.551 69.3222 210.551 69.911C210.551 70.4998 210.712 70.969 211.034 71.3186C211.365 71.659 211.765 71.8292 212.235 71.8292C212.704 71.8292 213.099 71.659 213.421 71.3186C213.753 70.9782 213.918 70.5136 213.918 69.9248ZM221.62 73.8854C220.949 73.8854 220.351 73.7704 219.826 73.5404C219.302 73.3104 218.888 72.9976 218.584 72.602C218.281 72.1972 218.11 71.7464 218.074 71.2496H220.406C220.433 71.5164 220.558 71.7326 220.778 71.8982C220.999 72.0638 221.271 72.1466 221.593 72.1466C221.887 72.1466 222.112 72.0914 222.269 71.981C222.434 71.8614 222.517 71.7096 222.517 71.5256C222.517 71.3048 222.402 71.1438 222.172 71.0426C221.942 70.9322 221.57 70.8126 221.054 70.6838C220.502 70.555 220.042 70.4216 219.674 70.2836C219.306 70.1364 218.989 69.911 218.722 69.6074C218.455 69.2946 218.322 68.876 218.322 68.3516C218.322 67.91 218.442 67.5098 218.681 67.151C218.929 66.783 219.288 66.4932 219.757 66.2816C220.236 66.07 220.801 65.9642 221.455 65.9642C222.421 65.9642 223.18 66.2034 223.732 66.6818C224.293 67.1602 224.615 67.795 224.698 68.5862H222.517C222.48 68.3194 222.361 68.1078 222.158 67.9514C221.965 67.795 221.708 67.7168 221.386 67.7168C221.11 67.7168 220.898 67.772 220.751 67.8824C220.604 67.9836 220.53 68.1262 220.53 68.3102C220.53 68.531 220.645 68.6966 220.875 68.807C221.114 68.9174 221.482 69.0278 221.979 69.1382C222.549 69.2854 223.014 69.4326 223.373 69.5798C223.732 69.7178 224.044 69.9478 224.311 70.2698C224.587 70.5826 224.73 71.0058 224.739 71.5394C224.739 71.9902 224.61 72.395 224.353 72.7538C224.104 73.1034 223.741 73.3794 223.262 73.5818C222.793 73.7842 222.246 73.8854 221.62 73.8854ZM230.19 73.8854C229.436 73.8854 228.755 73.7244 228.148 73.4024C227.55 73.0804 227.076 72.6204 226.727 72.0224C226.386 71.4244 226.216 70.7252 226.216 69.9248C226.216 69.1336 226.391 68.439 226.74 67.841C227.09 67.2338 227.568 66.7692 228.176 66.4472C228.783 66.1252 229.464 65.9642 230.218 65.9642C230.972 65.9642 231.653 66.1252 232.26 66.4472C232.868 66.7692 233.346 67.2338 233.696 67.841C234.045 68.439 234.22 69.1336 234.22 69.9248C234.22 70.716 234.041 71.4152 233.682 72.0224C233.332 72.6204 232.849 73.0804 232.233 73.4024C231.626 73.7244 230.945 73.8854 230.19 73.8854ZM230.19 71.843C230.641 71.843 231.023 71.6774 231.336 71.3462C231.658 71.015 231.819 70.5412 231.819 69.9248C231.819 69.3084 231.662 68.8346 231.35 68.5034C231.046 68.1722 230.669 68.0066 230.218 68.0066C229.758 68.0066 229.376 68.1722 229.073 68.5034C228.769 68.8254 228.617 69.2992 228.617 69.9248C228.617 70.5412 228.764 71.015 229.059 71.3462C229.362 71.6774 229.74 71.843 230.19 71.843Z" fill="#194650"/>
<path d="M277.154 36.9485C277.154 24.2459 287.451 13.9485 300.154 13.9485H382.961C395.664 13.9485 405.961 24.2459 405.961 36.9485V93.5515H277.154V36.9485Z" fill="#DAB16D"/>
<g clip-path="url(#clip2_2071_12519)">
<path d="M355.344 42.3351C355.475 44.5555 354.888 46.6299 353.846 48.5747C353.406 49.3851 353.063 50.8112 351.727 50.0819C350.522 49.4175 351.548 48.4613 351.923 47.6996C354.351 42.7727 353.454 37.4731 349.512 33.697C345.504 29.856 338.84 29.5319 334.539 32.9515C329.683 36.8249 328.461 43.1455 331.573 48.3316C334.49 53.1936 340.828 55.2357 346.009 53.0154C346.22 52.9181 346.432 52.8209 346.66 52.7561C347.589 52.4805 348.648 50.9247 349.43 52.3185C350.31 53.8419 348.453 54.166 347.556 54.6198C342.555 57.2453 336.184 56.2081 332.029 52.2212C327.793 48.1371 326.571 41.9138 328.983 36.6628C331.459 31.2336 336.917 27.9922 342.652 28.5108C350.049 29.1915 355.344 34.9773 355.344 42.3351Z" fill="#194650"/>
<path d="M346.086 37.6506C346.07 40.033 343.984 42.1398 341.638 42.1885C339.194 42.2371 337.027 40.0654 337.011 37.5858C337.011 35.2196 339.064 33.1289 341.459 33.0803C343.952 33.0155 346.102 35.1548 346.086 37.6506ZM341.801 35.2682C340.172 35.2682 339.227 36.1109 339.162 37.4561C339.08 38.9471 340.009 39.9033 341.589 39.9033C343.072 39.9033 343.919 39.0119 343.952 37.6182C344 36.192 343.104 35.4141 341.801 35.2682Z" fill="white"/>
<path d="M341.688 43.6288C342.616 43.6288 343.561 43.5477 344.474 43.645C346.136 43.8233 347.423 44.6174 348.026 46.2381C348.368 47.1618 348.824 48.3935 347.618 48.8635C346.429 49.3335 346.445 48.0208 346.168 47.2915C345.81 46.3515 345.093 45.687 344.115 45.6222C342.421 45.5088 340.694 45.4601 338.999 45.6222C337.859 45.7356 337.142 46.6108 336.832 47.7777C336.653 48.4584 336.344 49.2525 335.431 48.9122C334.502 48.5718 334.584 47.6804 334.845 46.9187C335.496 45.0063 336.783 43.7746 338.885 43.6126C339.814 43.5477 340.743 43.5964 341.671 43.5964C341.688 43.6126 341.688 43.6288 341.688 43.6288Z" fill="white"/>
<path d="M341.451 49.7429C340.885 49.7429 340.308 49.7594 339.741 49.7429C339.349 49.7263 339.033 49.4446 339.001 48.7652C338.979 48.0527 339.306 47.7875 339.698 47.771C340.896 47.7378 342.083 47.7544 343.281 47.7544C343.684 47.7544 343.999 47.9864 343.999 48.6989C344.01 49.3949 343.727 49.6932 343.313 49.7097C342.693 49.7595 342.072 49.7429 341.451 49.7429Z" fill="white"/>
</g>
<path d="M328.552 71.314H326.052V69.7372H328.552C328.938 69.7372 329.253 69.6743 329.495 69.5486C329.738 69.4183 329.915 69.2386 330.027 69.0095C330.14 68.7804 330.196 68.5221 330.196 68.2346C330.196 67.9426 330.14 67.6708 330.027 67.4193C329.915 67.1677 329.738 66.9656 329.495 66.8128C329.253 66.6601 328.938 66.5837 328.552 66.5837H326.753V74.8112H324.731V65.0002H328.552C329.32 65.0002 329.978 65.1395 330.526 65.418C331.079 65.692 331.501 66.0716 331.793 66.5568C332.085 67.0419 332.231 67.5967 332.231 68.2211C332.231 68.8545 332.085 69.4026 331.793 69.8653C331.501 70.328 331.079 70.6851 330.526 70.9366C329.978 71.1882 329.32 71.314 328.552 71.314ZM337.282 74.9459C336.716 74.9459 336.208 74.8561 335.759 74.6764C335.31 74.4922 334.928 74.2384 334.613 73.915C334.303 73.5915 334.065 73.2164 333.899 72.7897C333.733 72.3584 333.65 71.9002 333.65 71.4151V71.1455C333.65 70.593 333.728 70.0876 333.886 69.6294C334.043 69.1712 334.267 68.7737 334.559 68.4367C334.856 68.0998 335.215 67.8415 335.638 67.6618C336.06 67.4777 336.536 67.3856 337.066 67.3856C337.583 67.3856 338.041 67.4709 338.441 67.6416C338.84 67.8123 339.175 68.0549 339.445 68.3694C339.719 68.6838 339.925 69.0612 340.065 69.5014C340.204 69.9371 340.273 70.4223 340.273 70.9569V71.7655H334.479V70.4717H338.367V70.3235C338.367 70.0539 338.317 69.8136 338.218 69.6025C338.124 69.3868 337.98 69.2161 337.787 69.0904C337.594 68.9646 337.347 68.9017 337.046 68.9017C336.79 68.9017 336.57 68.9578 336.385 69.0701C336.201 69.1824 336.051 69.3397 335.934 69.5418C335.822 69.744 335.736 69.9821 335.678 70.2561C335.624 70.5256 335.597 70.8221 335.597 71.1455V71.4151C335.597 71.7071 335.638 71.9766 335.718 72.2237C335.804 72.4707 335.923 72.6841 336.076 72.8638C336.233 73.0435 336.421 73.1827 336.642 73.2816C336.866 73.3804 337.12 73.4298 337.403 73.4298C337.753 73.4298 338.079 73.3624 338.38 73.2277C338.685 73.0884 338.948 72.8795 339.168 72.601L340.112 73.6252C339.959 73.8453 339.75 74.0565 339.485 74.2586C339.225 74.4608 338.91 74.627 338.542 74.7573C338.173 74.883 337.753 74.9459 337.282 74.9459ZM343.822 69.1106V74.8112H341.881V67.5203H343.707L343.822 69.1106ZM346.018 67.4732L345.985 69.2723C345.89 69.2588 345.776 69.2476 345.641 69.2386C345.511 69.2251 345.392 69.2184 345.284 69.2184C345.01 69.2184 344.772 69.2543 344.57 69.3262C344.372 69.3936 344.206 69.4947 344.071 69.6294C343.941 69.7642 343.842 69.9281 343.774 70.1213C343.712 70.3145 343.676 70.5346 343.667 70.7817L343.276 70.6604C343.276 70.1887 343.323 69.7552 343.417 69.3599C343.512 68.9601 343.649 68.6119 343.828 68.3155C344.013 68.019 344.237 67.7899 344.502 67.6281C344.767 67.4664 345.07 67.3856 345.412 67.3856C345.52 67.3856 345.63 67.3946 345.742 67.4125C345.854 67.426 345.946 67.4462 346.018 67.4732ZM349.863 74.8112H347.916V67.1902C347.916 66.5702 348.041 66.0469 348.293 65.6201C348.549 65.1934 348.913 64.8699 349.384 64.6498C349.861 64.4297 350.436 64.3197 351.109 64.3197C351.491 64.3197 351.862 64.3578 352.221 64.4342C352.581 64.5061 352.951 64.6004 353.333 64.7172L353.05 66.2738C352.803 66.1974 352.538 66.1255 352.255 66.0581C351.972 65.9907 351.631 65.9571 351.231 65.9571C350.782 65.9571 350.44 66.0626 350.207 66.2738C349.977 66.4804 349.863 66.7859 349.863 67.1902V74.8112ZM351.312 67.5203V68.8949H346.831V67.5203H351.312ZM354.236 67.5203V74.8112H352.289V67.5203H354.236ZM358.411 64.4612V74.8112H356.463V64.4612H358.411Z" fill="#194650"/>
</g>
<defs>
<filter id="filter0_d_2071_12519" x="0" y="-4.76837e-07" width="425.5" height="107.5" filterUnits="userSpaceOnUse" color-interpolation-filters="sRGB">
<feFlood flood-opacity="0" result="BackgroundImageFix"/>
<feColorMatrix in="SourceAlpha" type="matrix" values="0 0 0 0 0 0 0 0 0 0 0 0 0 0 0 0 0 0 127 0" result="hardAlpha"/>
<feOffset dx="5.75"/>
<feGaussianBlur stdDeviation="2.875"/>
<feComposite in2="hardAlpha" operator="out"/>
<feColorMatrix type="matrix" values="0 0 0 0 0 0 0 0 0 0 0 0 0 0 0 0 0 0 0.25 0"/>
<feBlend mode="normal" in2="BackgroundImageFix" result="effect1_dropShadow_2071_12519"/>
<feBlend mode="normal" in="SourceGraphic" in2="effect1_dropShadow_2071_12519" result="shape"/>
</filter>
<clipPath id="clip0_2071_12519">
<rect width="27.6" height="27.6" fill="white" transform="translate(58.6426 27.4307)"/>
</clipPath>
<clipPath id="clip1_2071_12519">
<rect width="29.8079" height="29.8079" fill="white" transform="translate(191.654 27.5096)"/>
</clipPath>
<clipPath id="clip2_2071_12519">
<rect width="27.6" height="27.6" fill="white" transform="translate(327.758 28.4612)"/>
</clipPath>
</defs>
</svg>
