<svg width="28" height="24" viewBox="0 0 28 24" fill="none" xmlns="http://www.w3.org/2000/svg">
<path d="M6 18C6 16.9391 6.42143 15.9217 7.17157 15.1716C7.92172 14.4214 8.93913 14 10 14H18C19.0609 14 20.0783 14.4214 20.8284 15.1716C21.5786 15.9217 22 16.9391 22 18C22 18.5304 21.7893 19.0391 21.4142 19.4142C21.0391 19.7893 20.5304 20 20 20H8C7.46957 20 6.96086 19.7893 6.58579 19.4142C6.21071 19.0391 6 18.5304 6 18Z" stroke="#194650" stroke-width="2" stroke-linejoin="round"/>
<path d="M14 10C15.6569 10 17 8.65685 17 7C17 5.34315 15.6569 4 14 4C12.3431 4 11 5.34315 11 7C11 8.65685 12.3431 10 14 10Z" stroke="#194650" stroke-width="2"/>
</svg>
